<svg height="321.434772" viewBox="0 0 290.25 300" width="311.10511" xmlns="http://www.w3.org/2000/svg"><path d="m142.46582 2.7011719c-26.19284.0729901-52.383185 6.6572626-75.548455 18.8678821-28.425511 15.179111-52.822561 40.651451-61.1633275 72.369416-3.6366018 13.3615-3.8770523 27.53151-1.786264 41.16309 4.433734 23.95549 17.9237405 45.66604 36.2363275 61.5332 31.917859 28.03869 75.863929 40.28172 117.849339 36.97744 39.33795-2.59613 78.62095-19.50547 104.54324-49.74306 17.53106-20.22298 27.35631-47.41362 24.68757-74.2401-2.46709-28.54961-18.69024-54.51547-40.58113-72.428845-24.72617-20.73923-56.62445-31.5385472-88.50195-34.18457-5.23916-.2925901-10.48901-.3599577-15.73535-.3144531z" style="fill:#fff;fill-rule:evenodd;stroke:#0ff;stroke-width:.75;stroke-linecap:round;stroke-linejoin:round"/><path d="m0 0h290.25v300h-290.25z" fill="none"/><path d="m288.31 276.61a5.84 5.84 0 0 0 .31-2.15 18.06 18.06 0 0 0 -.78-4.38 10 10 0 0 0 -1.85-3.26c-1.33-1.58-3.39-3.48-3.11-5.76a.21.21 0 0 1 .29-.17c.08-.2.18-.39.26-.58.71-1.53 1.17-3.16 2-4.63s1.93-2.55 2.27-4.09a13.76 13.76 0 0 0 .15-2.57c0-.84 0-1.69 0-2.53a29.81 29.81 0 0 0 -.62-5.16 15 15 0 0 0 -1.62-4.6 3.5 3.5 0 0 0 -1.35-1.4 1.82 1.82 0 0 0 -2 .41 18.69 18.69 0 0 1 -4.31 1.91 20.32 20.32 0 0 0 -4.39 2.56 44.55 44.55 0 0 1 -4.34 2.52c-1.5.82-3 1.65-4.43 2.56-.71.45-1.41.92-2.09 1.42s-1.2 1-1.83 1.41-1.48.83-1.84-.07a5.57 5.57 0 0 1 -.21-2c0-.92 0-1.84.05-2.75.08-1.88.22-3.75.3-5.62a107.23 107.23 0 0 0 0-11.34 33.27 33.27 0 0 0 -.54-4.88 10.24 10.24 0 0 0 -1.84-4.12c-.19-.25-.37-.52-.55-.79h-.09a45.52 45.52 0 0 0 -5.4 1.9c-1.86.72-3.7 1.48-5.49 2.36s-3.41 1.9-5.08 2.92a107.2 107.2 0 0 1 -19.89 9.89 68 68 0 0 1 -11 3c-1.87.34-3.75.63-5.61 1.07a33.76 33.76 0 0 0 -5.92 1.73 25.57 25.57 0 0 1 -5.07 1.89c-1.88.41-3.8.56-5.71.83-3.69.52-7.14 1.91-10.78 2.65a30.45 30.45 0 0 1 -5.72.45l-6.42.09c-4.17.05-8.35.09-12.52.33s-8.2.65-12.31.77-8.41.07-12.59-.07a17.53 17.53 0 0 1 -4.15-.32 2 2 0 0 1 -1.28-1.11c-.66 0-1.32.08-2 .09a44.82 44.82 0 0 1 -9-.74c-2.14-.4-4.27-.91-6.41-1.32s-4.32-.79-6.46-1.27a49 49 0 0 1 -6.41-1.86c-2.05-.77-4.09-1.59-6.15-2.32a41.63 41.63 0 0 0 -6.18-1.71 39.84 39.84 0 0 1 -6.33-1.16c-1.84-.64-3.33-2-5.12-2.75-1-.42-2-.77-3-1.23l-3-1.36c-4.23-1.95-8.57-3.66-12.83-5.53a39.64 39.64 0 0 1 -5.73-2.93 25.29 25.29 0 0 0 -5.59-3.02 2.6 2.6 0 0 1 -1.58-1.31c-.05-.09-.1-.18-.14-.27a8.13 8.13 0 0 0 -3.51 3.55 7 7 0 0 0 -.14 3.29 37.77 37.77 0 0 1 .08 4.12c-.05 1.43-.13 2.87-.15 4.3s0 2.84 0 4.27c0 2.82-.13 5.63-.32 8.44 0 .69-.1 1.37-.14 2a11.75 11.75 0 0 1 -.13 1.58c-.13.59-.51 1-1.15.87a3.28 3.28 0 0 1 -1.13-.58c-.56-.4-1.11-.83-1.66-1.24l-3.39-2.47a97.6 97.6 0 0 0 -13.64-8.57 13.28 13.28 0 0 0 -2.63-1.06 2.4 2.4 0 0 0 -1.3 0c-.45.15-.78.74-1 1.1a9.45 9.45 0 0 0 -1.87 2.85 13.34 13.34 0 0 0 -.4 3.73c0 1.28 0 2.55-.09 3.83s0 2.65 0 4a13.73 13.73 0 0 0 .16 3.51 6.16 6.16 0 0 0 1.83 2.75 13.72 13.72 0 0 1 1.09 1.2c.35.45.59 1 .93 1.43a6.54 6.54 0 0 1 1 1.41 2.26 2.26 0 0 1 .1 1.21 8.81 8.81 0 0 1 -1.15 2.7c-.5.92-.95 1.88-1.45 2.8a33.2 33.2 0 0 0 -3 6.25 9.26 9.26 0 0 0 -.54 3.49 23.21 23.21 0 0 0 .75 3.48 11.68 11.68 0 0 1 .51 3.52c.84.15 1.68.35 2.49.58 1.3.36 2.47 1 3.74 1.45a14.83 14.83 0 0 1 3.38 1.44c1.16.75 2.52 1.08 3.66 1.85a23.67 23.67 0 0 0 3.44 1.93 35 35 0 0 1 3.52 1.75c1.11.68 2.12 1.48 3.23 2.16a17.15 17.15 0 0 0 3.9 1.64 30.67 30.67 0 0 0 4.12 1 22.41 22.41 0 0 0 4.41.21c1.47 0 3 0 4.42-.13a13.25 13.25 0 0 0 4-.66 4.59 4.59 0 0 0 2.58-2.67 19.18 19.18 0 0 0 1-3.58 31.93 31.93 0 0 0 .61-4.23 17.54 17.54 0 0 1 .54-3.89 18.33 18.33 0 0 1 1.35-3.24 5.71 5.71 0 0 0 -.72-.13c-.24 0-.24-.41 0-.38a15.61 15.61 0 0 1 3.59 1.13c1.35.51 2.71 1 4.07 1.48 2.78 1 5.56 2 8.31 3.08a43 43 0 0 0 4.1 1.39 36.79 36.79 0 0 1 3.78 1.45l1.41-.06a7.08 7.08 0 0 1 2 .25l2 .55a44.75 44.75 0 0 0 7.43 1.36 76.9 76.9 0 0 1 7.7 1c1.25.24 2.49.5 3.71.86l1.75.53a15.73 15.73 0 0 1 1.63.57 5.27 5.27 0 0 1 1.16.7l1.33.16c.66.09 1.32.19 2 .3a12.22 12.22 0 0 1 2.09-.12c2.15 0 4.31.3 6.46.39 2.82.13 5.63.38 8.45.6s5.62.49 8.42.8a60.49 60.49 0 0 0 8.08.09 59.1 59.1 0 0 0 8-.42c1.24-.19 2.46-.43 3.71-.53s2.69-.12 4-.1c2.68 0 5.37.16 8-.06s5.52-.84 8.28-1.23 5.4-.61 8.11-.85 5.66-.61 8.48-1c5.55-.78 11-1.94 16.42-3.23 2.69-.64 5.39-1.21 8-2.06s5.06-1.92 7.65-2.66c1.25-.35 2.54-.54 3.81-.78a32.77 32.77 0 0 0 3.78-1c1.26-.39 2.5-.84 3.75-1.28a13 13 0 0 1 2.77-.77c-.06-.11-.13-.21-.2-.32s.18-.39.32-.19a3.38 3.38 0 0 1 .3.47h.16a.19.19 0 0 1 0 .38c.76 1.64.65 3.54 1.15 5.29a39.18 39.18 0 0 0 1.4 3.74 21.92 21.92 0 0 1 1 3.55 12.7 12.7 0 0 0 1.28 3.7 10.23 10.23 0 0 1 1.14 2.44h.46c2.37-.21 4.76-.15 7.11-.54a32.89 32.89 0 0 0 6.81-1.87c1.06-.42 2.1-.88 3.16-1.31s2.07-.78 3.12-1.11 2.12-.66 3.16-1.07 2.09-1 3.12-1.54c2.09-1.07 4.22-2.06 6.34-3.07s4.13-2 6.27-2.75c1-.38 2.06-.67 3.06-1.1a14.81 14.81 0 0 0 2-1 12.91 12.91 0 0 1 -.17-2.06c0-.84 0-1.69 0-2.52a9.35 9.35 0 0 1 .48-2.15z" fill="#fff"/><path d="m145.13 236.73a172.92 172.92 0 0 1 -56.41-9.27 150.06 150.06 0 0 1 -46.11-25.3 120 120 0 0 1 -31.16-37.62 98.81 98.81 0 0 1 0-92.34 119.87 119.87 0 0 1 31.16-37.62 150.08 150.08 0 0 1 46.11-25.31 176.24 176.24 0 0 1 112.81 0 150 150 0 0 1 46.11 25.31 119.74 119.74 0 0 1 31.16 37.62 98.81 98.81 0 0 1 0 92.34 119.85 119.85 0 0 1 -31.16 37.62 149.94 149.94 0 0 1 -46.11 25.3 172.86 172.86 0 0 1 -56.4 9.27zm0-234.06c-78.55 0-142.46 51.9-142.46 115.7s63.91 115.69 142.46 115.69 142.45-51.9 142.45-115.69-63.9-115.7-142.45-115.7z"/><path d="m112 263.12v.1l-49-13.31 4.5 7.09a3.92 3.92 0 0 1 .61 2.08v18.72l43.89 11.9v-22.12l2.18.3zm-12.45 2.41 2.55.83-2.55.42zm-18.82 11.8-6.17-2v-17.69l6.17 1.76zm12.66 3.67-7.26-2v-16.9l7.26 1.95zm12.15 3.38-6-2v-11.46l6-1.07z"/><path d="m156.77 278.32v-10.45h3.54l-3.68-4.05h-23.81l4.18 4.18h15.82v3.8a11.48 11.48 0 0 0 -5.78-1.51c-3.44 0-12.4.79-12.4 11.38s10.45 10.18 11.68 10.18 8.61-.54 11.31-6.64l-4.37-3.14s-2.63 5.19-8 5.19-5.45-5.4-5.45-6 .47-6.12 7-6.12 9.96 3.18 9.96 3.18z"/><path d="m190.76 273.29 6.36-1.52s-.9-11.57 9.07-11.85c0 0 6.79.48 3.1 8.9a32.66 32.66 0 0 1 -10.29 10.39l3.1 3.89c.19.23 5.63-4.67 6-5 3.39-3.33 6.59-7.34 7.8-12a11.23 11.23 0 0 0 0-6.74 7.36 7.36 0 0 0 -5.66-4.48c-4.78-1-11.7.9-14.43 5.29a18.19 18.19 0 0 0 -1 2.51l-1.6.34s-1.12-1.48-1.22-1.58a6.68 6.68 0 0 0 -3.83-1.91 12.09 12.09 0 0 0 -5.46 1 16.05 16.05 0 0 0 -7.8 5.89 12.43 12.43 0 0 0 -2 6.62 17.61 17.61 0 0 0 .45 4.84 9 9 0 0 0 3.23 4.59 14.81 14.81 0 0 0 4.24 2.47c.5.19 4.87 2 4.87 2l3.16-4.44s-12.98-3.5-10.13-11.6c2.8-7.57 9.38-5.93 10.81-4.38s1.23 6.77 1.23 6.77z"/><path d="m147.96 250.48h7.73l8.84 10.58h-6.98z"/><path d="m209.44 241.44-5.31 2.77 10.37 7.86 5.31-2.76z"/><path d="m40.9 300a44.91 44.91 0 0 1 -6.64-.53 1.39 1.39 0 0 1 -.33-.1l-31.63-14.37a1.29 1.29 0 0 1 -.69-.74c-3-7.9-1.22-13.75.82-17.26a18.93 18.93 0 0 1 4-4.87c-6.86-8-6.82-15.43-5.52-20.3a22.17 22.17 0 0 1 4.92-9.07 1.32 1.32 0 0 1 1.67-.2l24.15 15.27a1.34 1.34 0 1 1 -1.43 2.26l-23.12-14.65a20.23 20.23 0 0 0 -3.59 7.19c-1.68 6.41.3 12.73 5.88 18.77a1.32 1.32 0 0 1 .35 1.07 1.37 1.37 0 0 1 -.6 1 15.7 15.7 0 0 0 -4.45 5c-2.41 4.22-2.67 9.05-.77 14.36l31 14.06c4.73.77 11.78.8 13.32-1.45.43-2.34 2.71-14.69 4.13-17.35a1.34 1.34 0 0 1 2.36 1.26c-1 1.83-2.87 11.05-3.9 16.81a1.19 1.19 0 0 1 -.14.4c-1.24 2.27-4.46 3.44-9.56 3.47z"/><path d="m249.36 300h-.2c-5.1 0-8.31-1.2-9.56-3.47a1.9 1.9 0 0 1 -.14-.4c-1-5.76-2.92-15-3.9-16.81a1.34 1.34 0 0 1 2.36-1.26c1.42 2.66 3.71 15 4.13 17.35 1.54 2.25 8.59 2.22 13.33 1.45l31-14.06c1.91-5.35 1.63-10.22-.83-14.46a15.49 15.49 0 0 0 -4.4-4.91 1.33 1.33 0 0 1 -.25-2c5.61-6.08 7.59-12.43 5.86-18.88a20.25 20.25 0 0 0 -3.56-7.08l-23.2 14.62a1.34 1.34 0 0 1 -1.43-2.26l24.15-15.27a1.32 1.32 0 0 1 1.67.2 22.17 22.17 0 0 1 4.92 9.07c1.3 4.87 1.34 12.25-5.51 20.3a19.14 19.14 0 0 1 4 4.87c2 3.51 3.83 9.36.83 17.26a1.34 1.34 0 0 1 -.7.74l-31.63 14.37a1.26 1.26 0 0 1 -.33.1 44.86 44.86 0 0 1 -6.61.53z"/><path d="m149.16 296.89h-6.85a228.54 228.54 0 0 1 -34.94-2.73 265.64 265.64 0 0 1 -35.17-7.64 221.26 221.26 0 0 1 -39.51-15.57 1.34 1.34 0 0 1 1.22-2.38c27.09 13.92 55.09 20.15 73.79 22.92a226.7 226.7 0 0 0 34.56 2.72h5.74a225.06 225.06 0 0 0 34.56-2.72c18.73-2.77 46.74-9 73.79-22.93a1.34 1.34 0 1 1 1.22 2.38 221.26 221.26 0 0 1 -39.51 15.57 265.29 265.29 0 0 1 -35.17 7.64 241.27 241.27 0 0 1 -33.73 2.74z"/><path d="m241.24 297.93a1.34 1.34 0 0 1 -1.15-2l15.18-25.8c.19-.32.37-.65.53-1a15.89 15.89 0 0 0 1.64-7v-40.58a3.48 3.48 0 0 0 -5.35-3 189.9 189.9 0 0 1 -38.58 18.45 198.94 198.94 0 0 1 -65.51 11.1h-5.67a198.84 198.84 0 0 1 -65.58-11.1 189.77 189.77 0 0 1 -38.59-18.4 3.48 3.48 0 0 0 -5.35 3v40.59a15.89 15.89 0 0 0 1.64 7c.17.32.34.65.53 1l15.18 25.8a1.34 1.34 0 0 1 -2.3 1.36l-15.18-25.89c-.22-.37-.43-.75-.62-1.14a18.38 18.38 0 0 1 -1.92-8.18v-40.59a6.15 6.15 0 0 1 9.45-5.21c13.85 8.75 51.57 29.08 102.7 29.08h5.71c51.13 0 88.85-20.33 102.7-29.08a6.16 6.16 0 0 1 9.46 5.21v40.59a18.39 18.39 0 0 1 -1.93 8.18c-.19.39-.39.77-.61 1.14l-15.19 25.81a1.34 1.34 0 0 1 -1.19.66z"/><path d="m120.58 248.69c-1-.1-5.36.14-6.06 4s3.1 5.35 3.77 5.58 2.54 1 1.82 2-5 2.19-5 2.19l3.3 4.38c4.8-2 10.43-6 10.15-10.81-.35-6.48-7.01-7.25-7.98-7.34zm3 7.35a2 2 0 1 1 -.77-2.41 1.8 1.8 0 0 1 .8 2.37z"/><path d="m114.24627 199.37476c0-4.41.69-42.17.79-48a2.08 2.08 0 0 1 .58-1.42 11.49 11.49 0 0 1 3.46-2.34l.7-.39a3 3 0 0 0 1.11-.91 1.5 1.5 0 0 0 .28-.51 1.77 1.77 0 0 0 0-.65c0-.51-.07-1-.13-1.53a13.4 13.4 0 0 1 -.16-1.54c0-.39 0-.78 0-1.17s0-.73 0-1.09a30.24 30.24 0 0 1 .09-4c.08-.72.2-1.44.28-2.16a48.24 48.24 0 0 0 -.12-6c-.06-1.87 0-3.75.14-5.62a3.88 3.88 0 0 1 .22-1.31 1.31 1.31 0 0 1 1-.82h.77a2.79 2.79 0 0 1 .93 3.38 14.15 14.15 0 0 0 -.65 1.5 6.94 6.94 0 0 0 -.1 1.82c0 1.21 0 2.42.08 3.62a30.11 30.11 0 0 0 .23 3.92c.22 1.37.72 2.75.44 4.11-.18.9-.69 1.71-.89 2.61a6.69 6.69 0 0 0 .84 4.28c.25.53.56 1.09 1.28 1.15a1.71 1.71 0 0 0 1.51-.78 6.21 6.21 0 0 0 .69-3c.21-1.69.89-3.28 1.25-4.94a25.92 25.92 0 0 0 .44-4.91l.24-9.44a15.25 15.25 0 0 1 .37-3.57c.15-.55.43-1.15 1.1-1.13a1.1 1.1 0 0 1 .9.56c1 1.7 0 3.63-.37 5.46-.51 2.41.06 4.9-.13 7.35-.13 1.82-.68 3.59-.76 5.4-.08 1.61.2 3.26-.29 4.8-.12.38-.29.76-.39 1.15a2 2 0 0 0 0 1.12h.05a3.66 3.66 0 0 1 .93-.19 3 3 0 0 1 .73.07 1.28 1.28 0 0 0 1 0 .24.24 0 0 1 .08-.06 1.42 1.42 0 0 1 .33-.11s.2-.06.22 0a6.43 6.43 0 0 1 -.87-1.08 5.42 5.42 0 0 1 -.76-2.26 16.83 16.83 0 0 1 .34-3.6c.45-3.72-.59-7.56.21-11.22.21-.92.52-1.82.64-2.75a24.33 24.33 0 0 0 -.14-4 61.29 61.29 0 0 1 .39-6.34 11.44 11.44 0 0 0 -1-6.18 13.82 13.82 0 0 1 -1.07-2 14.06 14.06 0 0 0 -.58-1.84 1.39 1.39 0 0 0 -1.58-.78l-2.49-7.890001a2.46 2.46 0 0 0 .54-2.49c-.22-.87-.68-1.67-.88-2.54a11.81 11.81 0 0 0 -.55-2.73c-.69-1.4-2.53-1.86-4.08-1.59a31 31 0 0 0 -4.41 1.59 21.83 21.83 0 0 1 -2.65.66c-3.09.65-6.36 1.26-9.36.28a2.57 2.57 0 0 0 -1.81-.2 4.21 4.21 0 0 0 -.59.38 5 5 0 0 1 -2.65.56c-.93 0-1.86 0-2.78 0a2.74 2.74 0 0 1 -1.79-.42 6 6 0 0 1 -.87-1 10.07 10.07 0 0 0 -.85-.88 2.55 2.55 0 0 0 -1.33-.61 4.43 4.43 0 0 0 -1.4.15 18.3 18.3 0 0 0 -2.3.66 8.45 8.45 0 0 1 -.85.28 6.54 6.54 0 0 1 -2.07.13 6.44 6.44 0 0 1 -1.32-.16 5.2 5.2 0 0 1 -2.26-1.3 16.28 16.28 0 0 1 -1.72-2l-1-.71c-.93-.55-1.41-1.62-2.23-2.32a1.35 1.35 0 0 0 -.61-.33 1.54 1.54 0 0 0 -1 .37 3.58 3.58 0 0 0 -1.75 2.3c-.06.51.08 1 0 1.55a2.69 2.69 0 0 1 -.43 1c-.64 1-1.51 1.79-2.18 2.76-.53.77-.91 1.63-1.47 2.38a10.11 10.11 0 0 1 -.91 1c-1.64 1.64-3.63 2.84-5.34 4.39a25.32 25.32 0 0 0 -2.25 2.38c-.49.59-1 1.15-1.47 1.77a11.79 11.79 0 0 1 -.93 1.340001 8.09 8.09 0 0 0 -1.72 2.59 22.91 22.91 0 0 0 -.9 2.92 19.23 19.23 0 0 0 -.43 2c0 .06-.14.82 0 .79a9.49 9.49 0 0 1 2.07.23c5.31.74 5.37 4.78 5.21 6.3s-4.28 3.81-4.28 3.81c-1.82 3.45-2.24 11.88-1.22 14.2s6.9 14.44 12.32 25.75 5.52 32.68 5.52 32.68c-.35 7 3.35 4.26 3.35 4.26 1.26-1.19 7.57-2.07 7.66-2.47s-.16-11-.19-15.08-3.44-13.32-4.6-17.13-9.84-18.84-10.96-20.63-.72-2.89-.58-3a2.37 2.37 0 0 1 2.12 0c.72.54 8.42 13.22 10.42 16.81a96 96 0 0 1 7.41 19.37c1.49 6.38.79 23.58.79 23.58a18.85 18.85 0 0 0 -8.68.53c-.89.28-4.43 1.4-5.36 2.15a3.31 3.31 0 0 0 -1 4.33c1 2.35 2.63 1.81 5.65 2.11s3.1-1.37 3.87-2.32 2.54-3.8 3.3-4.54a1.47 1.47 0 0 1 2.29.69c.11.77-.8 2-1.67 3.85s0 2 0 2a66.22 66.22 0 0 0 22.07-1.77l.52.32.57-.35s1.84-.62 1.84-5.4z" fill="none"/><path d="m119.86627 193.23476-4.28 10.15-3.45 1.86-.33-.23c-1.48 1-4.83 3.6 2.77 3.09a18.13 18.13 0 0 0 3.84-.64c6.27-2.2 1.45-14.23 1.45-14.23z" fill="none"/><path d="m69.17627 197.94476a7.17 7.17 0 0 1 -1.07.76 5 5 0 0 1 -1.64.26 11.76 11.76 0 0 0 -3.66 1.05 9.5 9.5 0 0 0 -3.22 2 3.46 3.46 0 0 0 -.92 3.49 2.18 2.18 0 0 0 .61.88 1.88 1.88 0 0 0 .58.34 3.09 3.09 0 0 0 1.2.2h2.37c2.23.06 4.44.21 6.66.36a4.85 4.85 0 0 0 2.27-.28 1.1 1.1 0 0 0 .51-1.35 3.77 3.77 0 0 0 -.76-1.33 3.61 3.61 0 0 1 -.74-1.34 2.37 2.37 0 0 1 .79-2.2 6.27 6.27 0 0 0 1.27-1.19 2 2 0 0 0 -.1-2 1 1 0 0 0 -1.1-.58l-1.21.22a6.17 6.17 0 0 0 -1.84.71z" fill="none"/><path d="m194.55627 161.66476c1.25 1.52-.88 2.58-.64 4.07-.07 1 1.34.83 1.94.56 2.41-1.49 1.44-5.19.34-7.27-1.27-1.81-3.58 1.64-1.64 2.64z"/><path d="m114.24627 199.37476c0-4.41.69-42.17.79-48a2.08 2.08 0 0 1 .58-1.42 11.49 11.49 0 0 1 3.46-2.34l.7-.39a3 3 0 0 0 1.11-.91 1.5 1.5 0 0 0 .28-.51 1.77 1.77 0 0 0 0-.65c0-.51-.07-1-.13-1.53a13.4 13.4 0 0 1 -.16-1.54c0-.39 0-.78 0-1.17s0-.73 0-1.09a30.24 30.24 0 0 1 .09-4c.08-.72.2-1.44.28-2.16a48.24 48.24 0 0 0 -.12-6c-.06-1.87 0-3.75.14-5.62a3.88 3.88 0 0 1 .22-1.31 1.31 1.31 0 0 1 1-.82h.77a2.79 2.79 0 0 1 .93 3.38 14.15 14.15 0 0 0 -.65 1.5 6.94 6.94 0 0 0 -.1 1.82c0 1.21 0 2.42.08 3.62a30.11 30.11 0 0 0 .23 3.92c.22 1.37.72 2.75.44 4.11-.18.9-.69 1.71-.89 2.61a6.69 6.69 0 0 0 .84 4.28c.25.53.56 1.09 1.28 1.15a1.71 1.71 0 0 0 1.51-.78 6.21 6.21 0 0 0 .69-3c.21-1.69.89-3.28 1.25-4.94a25.92 25.92 0 0 0 .44-4.91l.24-9.44a15.25 15.25 0 0 1 .37-3.57c.15-.55.43-1.15 1.1-1.13a1.1 1.1 0 0 1 .9.56c1 1.7 0 3.63-.37 5.46-.51 2.41.06 4.9-.13 7.35-.13 1.82-.68 3.59-.76 5.4-.08 1.61.2 3.26-.29 4.8-.12.38-.29.76-.39 1.15a2 2 0 0 0 0 1.12h.05a3.66 3.66 0 0 1 .93-.19 3 3 0 0 1 .73.07 1.28 1.28 0 0 0 1 0 .24.24 0 0 1 .08-.06 1.42 1.42 0 0 1 .33-.11s.2-.06.22 0a6.43 6.43 0 0 1 -.87-1.08 5.42 5.42 0 0 1 -.76-2.26 16.83 16.83 0 0 1 .34-3.6c.45-3.72-.59-7.56.21-11.22.21-.92.52-1.82.64-2.75a24.33 24.33 0 0 0 -.14-4 61.29 61.29 0 0 1 .39-6.34 11.44 11.44 0 0 0 -1-6.18 13.82 13.82 0 0 1 -1.07-2 14.06 14.06 0 0 0 -.58-1.84 1.39 1.39 0 0 0 -1.58-.78l-2.49-7.890001a2.46 2.46 0 0 0 .54-2.49c-.22-.87-.68-1.67-.88-2.54a11.81 11.81 0 0 0 -.55-2.73c-.69-1.4-2.53-1.86-4.08-1.59a31 31 0 0 0 -4.41 1.59 21.83 21.83 0 0 1 -2.65.66c-3.09.65-6.36 1.26-9.36.28a2.57 2.57 0 0 0 -1.81-.2 4.21 4.21 0 0 0 -.59.38 5 5 0 0 1 -2.65.56c-.93 0-1.86 0-2.78 0a2.74 2.74 0 0 1 -1.79-.42 6 6 0 0 1 -.87-1 10.07 10.07 0 0 0 -.85-.88 2.55 2.55 0 0 0 -1.33-.61 4.43 4.43 0 0 0 -1.4.15 18.3 18.3 0 0 0 -2.3.66 8.45 8.45 0 0 1 -.85.28 6.54 6.54 0 0 1 -2.07.13 6.44 6.44 0 0 1 -1.32-.16 5.2 5.2 0 0 1 -2.26-1.3 16.28 16.28 0 0 1 -1.72-2l-1-.71c-.93-.55-1.41-1.62-2.23-2.32a1.35 1.35 0 0 0 -.61-.33 1.54 1.54 0 0 0 -1 .37 3.58 3.58 0 0 0 -1.75 2.3c-.06.51.08 1 0 1.55a2.69 2.69 0 0 1 -.43 1c-.64 1-1.51 1.79-2.18 2.76-.53.77-.91 1.63-1.47 2.38a10.11 10.11 0 0 1 -.91 1c-1.64 1.64-3.63 2.84-5.34 4.39a25.32 25.32 0 0 0 -2.25 2.38c-.49.59-1 1.15-1.47 1.77a11.79 11.79 0 0 1 -.93 1.340001 8.09 8.09 0 0 0 -1.72 2.59 22.91 22.91 0 0 0 -.9 2.92 19.23 19.23 0 0 0 -.43 2c0 .06-.14.82 0 .79a9.49 9.49 0 0 1 2.07.23c5.31.74 5.37 4.78 5.21 6.3s-4.28 3.81-4.28 3.81c-1.82 3.45-2.24 11.88-1.22 14.2s6.9 14.44 12.32 25.75 5.52 32.68 5.52 32.68c-.35 7 3.35 4.26 3.35 4.26 1.26-1.19 7.57-2.07 7.66-2.47s-.16-11-.19-15.08-3.44-13.32-4.6-17.13-9.84-18.84-10.96-20.63-.72-2.89-.58-3a2.37 2.37 0 0 1 2.12 0c.72.54 8.42 13.22 10.42 16.81a96 96 0 0 1 7.41 19.37c1.49 6.38.79 23.58.79 23.58a18.85 18.85 0 0 0 -8.68.53c-.89.28-4.43 1.4-5.36 2.15a3.31 3.31 0 0 0 -1 4.33c1 2.35 2.63 1.81 5.65 2.11s3.1-1.37 3.87-2.32 2.54-3.8 3.3-4.54a1.47 1.47 0 0 1 2.29.69c.11.77-.8 2-1.67 3.85s0 2 0 2a66.22 66.22 0 0 0 22.07-1.77l.52.32.57-.35s1.84-.62 1.84-5.4z" fill="none"/><path d="m119.86627 193.23476-4.28 10.15-3.45 1.86-.33-.23c-1.48 1-4.83 3.6 2.77 3.09a18.13 18.13 0 0 0 3.84-.64c6.27-2.2 1.45-14.23 1.45-14.23z"/><g fill="none"><path d="m131.00627 71.654759c.11-.25.33-.49.25-.75a.6.6 0 0 0 -.27-.32 4.4 4.4 0 0 0 -.72-.36h-.11a3.09 3.09 0 0 1 -1.54 1.14c-1 .38-2.2.25-2.79 1.33a8 8 0 0 1 -1.31 2.37 4.87 4.87 0 0 1 -2.8 1 27.83 27.83 0 0 0 -3.76.37c-.94.25-1.54 1.17-2.35 1.67a6.38 6.38 0 0 1 -3 .92c-.37 0-.74 0-1.11 0a1.57 1.57 0 0 0 -1.25.67 3.41 3.41 0 0 1 -2.67.62 10.26 10.26 0 0 1 -2.77-.3c-1.08-.3-2-1-3.13-1.21a11.63 11.63 0 0 0 -3.36.37 3.49 3.49 0 0 1 -3.91-2.12c-.22-.54-.31-.74-.88-.53a7.72 7.72 0 0 1 -1 .38 2.65 2.65 0 0 1 -1.5-.23c-1.36-.48-3 .09-4.12-1a28 28 0 0 0 -2.38-2.6 2.68 2.68 0 0 0 -1.39-.49c-.41 0-1.57-.22-1.89.15l-.58.35a.89.89 0 0 1 -1.41.16 1.58 1.58 0 0 1 -.28-1.57 2.33 2.33 0 0 1 .83-1.24 7.67 7.67 0 0 1 1.31-.58 4.92 4.92 0 0 0 2.69-2.74c.36-.94.31-2.2-.55-2.7a2 2 0 0 0 -2.13.34 8.85 8.85 0 0 0 -1.44 1.77 10.22 10.22 0 0 1 -3.05 2.73 32.6 32.6 0 0 1 -3 1.43c-1.1.52-2.16 1.11-3.28 1.58a16.64 16.64 0 0 1 -9.17 1 10.47 10.47 0 0 0 -2.38-.25 2.55 2.55 0 0 0 -2.07 1.1 2.29 2.29 0 0 0 -.28.92 3.35 3.35 0 0 0 1.84 3.3 5.89 5.89 0 0 0 2.5.43c1.07 0 2.14 0 3.21-.08a4 4 0 0 0 2-.54c.72-.5 1.06-1.41 1.74-2 1.36-1.06 3.47-.34 5.06-1.13a8.87 8.87 0 0 0 1.67-1.27 3 3 0 0 1 1.87-.84 1.32 1.32 0 0 1 1.35 1.29l.19.67a4.6 4.6 0 0 0 1.28 3.15c.56.45 1.3.61 1.89 1a9.57 9.57 0 0 1 1.65 1.77 6.73 6.73 0 0 0 7.22 1.78c.94-.36 1.92-1 2.9-.69a5.41 5.41 0 0 1 1.74 1.14 5.21 5.21 0 0 0 5.17.71c1.07-.45 2-1.28 3.21-1.25s2.25 1.08 3.33 1.75a6.26 6.26 0 0 0 7.66-1.07 4.2 4.2 0 0 1 1-.94 4.84 4.84 0 0 1 2.46-.13 4.3 4.3 0 0 0 3.34-1.52 5.37 5.37 0 0 1 1-1.08 4 4 0 0 1 2.2-.37 8.08 8.08 0 0 0 6.15-3.1l1.81-1.65a4.69 4.69 0 0 0 -.66-1.3 1.62 1.62 0 0 1 -.23-1.41z"/><path d="m73.53627 77.174759a.74.74 0 0 0 -.31-.12.78.78 0 0 0 -.37.06 2.56 2.56 0 0 0 -.75.43l-.68.23c-.36.17-.83 0-1.18.22s-.37.46-.59.66a.91.91 0 0 1 -.51.25c-.13 0-.27 0-.4 0a1.09 1.09 0 0 0 -.94 1.11.66.66 0 0 0 .08.34.81.81 0 0 0 .35.25 2.8 2.8 0 0 0 2.11 0 5.39 5.39 0 0 0 .68-.34l.65-.37a6.85 6.85 0 0 0 .78-.49 4.48 4.48 0 0 1 .44-.32c.24-.14.51-.22.75-.36a1.38 1.38 0 0 0 .48-.51.48.48 0 0 0 .09-.4.56.56 0 0 0 -.2-.26 3.27 3.27 0 0 0 -.48-.38z"/><path d="m82.67627 59.484759c.67.25 1.48.68 1.4 1.39l-.15.53a1.66 1.66 0 0 0 .16 1.54 3.26 3.26 0 0 0 1.15.92l1.68 1a9.47 9.47 0 0 0 1.56.78 8.46 8.46 0 0 0 1.73.37 2 2 0 0 1 .63.16 1 1 0 0 1 .5.92 1.17 1.17 0 0 1 -.61.88 2.07 2.07 0 0 1 -1.07.23l-.56-.07a6 6 0 0 0 -2.72.52.69.69 0 0 0 -.42.36 2 2 0 0 0 0 .34.76.76 0 0 1 -.36.57 1.18 1.18 0 0 0 -.22.14.57.57 0 0 0 -.12.18 1.43 1.43 0 0 0 -.14.61.59.59 0 0 0 .13.33c0 .07.11.12.15.19s.08.25.14.36a2.14 2.14 0 0 0 .46.49c.16.16.31.33.47.5l.43.48a7.26 7.26 0 0 0 1.33 1.43c.7.42 1.82.06 2.63.28a5.12 5.12 0 0 0 1.35.41c.69 0 1.26-.61 2-.55a1.92 1.92 0 0 1 1.54 1.24c.42.94.71 1.48 1.86 1.52s2.13-.39 3.21-.44a6.1 6.1 0 0 1 2.72.63 8.79 8.79 0 0 0 3.36.93 8.45 8.45 0 0 0 1.59 0 1.66 1.66 0 0 0 1-.58 3.51 3.51 0 0 1 2.33-.71 6 6 0 0 0 2.82-.64c.85-.49 1.41-1.33 2.31-1.72a8.49 8.49 0 0 1 2.79-.44c1-.07 2.86 0 3.69-.75.6-.56.7-1.51 1.12-2.2a3.27 3.27 0 0 1 1.94-1.41c.74-.23 2.12-.21 2.4-1.09l.13-.35c0-.19.07-.39.09-.59.18-1.38-.81-2.66-.9-4a13.57 13.57 0 0 0 0-1.43 3 3 0 0 0 -1.85-2 13.13 13.13 0 0 0 -2.78-.68 2.91 2.91 0 0 1 -1.35-.53 3.54 3.54 0 0 1 -.84-1.59 4.05 4.05 0 0 0 -2.72-2.93c-.7-.13-1.47 0-2.08-.32a1.43 1.43 0 0 1 -.31-2.13 2.43 2.43 0 0 1 1.15-.59 4.5 4.5 0 0 0 1.23-.43 1.22 1.22 0 0 0 .65-1.06.72.72 0 0 0 -.9-.66l-.9.05c-2.39.08-4.47-1.54-6.75-2.27a18.63 18.63 0 0 0 -4.15-.67 135.4 135.4 0 0 0 -16.36-.57 52.23 52.23 0 0 1 -6 .09 14.76 14.76 0 0 1 -3.44-.63 8.76 8.76 0 0 1 -1.19-.49c-.28-.13-.53-.28-.8-.43a.78.78 0 0 0 -.32-.12 2.11 2.11 0 0 0 -.35 0 3.66 3.66 0 0 1 -.57 0l-.8-.11a14.15 14.15 0 0 1 -1.58-.29 5.54 5.54 0 0 1 -2-.91c-.63-.49-1.17-1.1-1.84-1.53a6 6 0 0 0 -2.29-.8 14.74 14.74 0 0 0 -5.38.07 8.42 8.42 0 0 0 -1.57.49 10.26 10.26 0 0 0 -1.27.67c-.2.13-.41.26-.6.4a2 2 0 0 0 -.61.68 2.58 2.58 0 0 0 -.36.93 2.26 2.26 0 0 0 .13 1 3.73 3.73 0 0 0 1.4 1.74 16.66 16.66 0 0 1 1.56 1.08 17.28 17.28 0 0 1 1.44 1.81 10.23 10.23 0 0 0 3.47 2.34l7.34 3.56c2.62 1.25 5.28 2.55 8.06 3.57zm4.27-8.73a2.22 2.22 0 0 1 .57-.24 2.85 2.85 0 0 1 1.74-.21 1.43 1.43 0 0 1 1 1.13l.29.36c1.42.26 2.82-.45 4.24-.64a8.61 8.61 0 0 1 1.83 0 3.38 3.38 0 0 1 1 .21c1 .43 1.36 1.59 2.11 2.35a4.73 4.73 0 0 0 1.49 1 2 2 0 0 0 1.16.22c.43-.09.88-.45 1.26-.22a1.88 1.88 0 0 1 -1 1.76 7 7 0 0 1 -3.7 1 34.25 34.25 0 0 1 -3.51 0 4.17 4.17 0 0 1 -1.12-.19 3.75 3.75 0 0 1 -1.12-.67 14.48 14.48 0 0 1 -1.41-1.3 2.42 2.42 0 0 0 -1.06-.8c-.74-.19-1.59.39-2.24 0s-.59-1.13-1.12-1.48c-.13-.09-.28-.14-.42-.22a1.15 1.15 0 0 1 -.56-1 1.16 1.16 0 0 1 .57-1.06z"/><path d="m57.59627 116.83476a2.33 2.33 0 1 0 -2.47-2.33 2.4 2.4 0 0 0 2.47 2.33z"/><path d="m69.17627 197.94476a7.17 7.17 0 0 1 -1.07.76 5 5 0 0 1 -1.64.26 11.76 11.76 0 0 0 -3.66 1.05 9.5 9.5 0 0 0 -3.22 2 3.46 3.46 0 0 0 -.92 3.49 2.18 2.18 0 0 0 .61.88 1.88 1.88 0 0 0 .58.34 3.09 3.09 0 0 0 1.2.2h2.37c2.23.06 4.44.21 6.66.36a4.85 4.85 0 0 0 2.27-.28 1.1 1.1 0 0 0 .51-1.35 3.77 3.77 0 0 0 -.76-1.33 3.61 3.61 0 0 1 -.74-1.34 2.37 2.37 0 0 1 .79-2.2 6.27 6.27 0 0 0 1.27-1.19 2 2 0 0 0 -.1-2 1 1 0 0 0 -1.1-.58l-1.21.22a6.17 6.17 0 0 0 -1.84.71z"/><path d="m119.86627 193.23476-4.28 10.15-3.45 1.86-.33-.23c-1.48 1-4.83 3.6 2.77 3.09a18.13 18.13 0 0 0 3.84-.64c6.27-2.2 1.45-14.23 1.45-14.23z"/><path d="m114.24627 199.37476c0-4.41.69-42.17.79-48a2.08 2.08 0 0 1 .58-1.42 11.49 11.49 0 0 1 3.46-2.34l.7-.39a3 3 0 0 0 1.11-.91 1.5 1.5 0 0 0 .28-.51 1.77 1.77 0 0 0 0-.65c0-.51-.07-1-.13-1.53a13.4 13.4 0 0 1 -.16-1.54c0-.39 0-.78 0-1.17s0-.73 0-1.09a30.24 30.24 0 0 1 .09-4c.08-.72.2-1.44.28-2.16a48.24 48.24 0 0 0 -.12-6c-.06-1.87 0-3.75.14-5.62a3.88 3.88 0 0 1 .22-1.31 1.31 1.31 0 0 1 1-.82h.77a2.79 2.79 0 0 1 .93 3.38 14.15 14.15 0 0 0 -.65 1.5 6.94 6.94 0 0 0 -.1 1.82c0 1.21 0 2.42.08 3.62a30.11 30.11 0 0 0 .23 3.92c.22 1.37.72 2.75.44 4.11-.18.9-.69 1.71-.89 2.61a6.69 6.69 0 0 0 .84 4.28c.25.53.56 1.09 1.28 1.15a1.71 1.71 0 0 0 1.51-.78 6.21 6.21 0 0 0 .69-3c.21-1.69.89-3.28 1.25-4.94a25.92 25.92 0 0 0 .44-4.91l.24-9.44a15.25 15.25 0 0 1 .37-3.57c.15-.55.43-1.15 1.1-1.13a1.1 1.1 0 0 1 .9.56c1 1.7 0 3.63-.37 5.46-.51 2.41.06 4.9-.13 7.35-.13 1.82-.68 3.59-.76 5.4-.08 1.61.2 3.26-.29 4.8-.12.38-.29.76-.39 1.15a2 2 0 0 0 0 1.12h.05a3.66 3.66 0 0 1 .93-.19 3 3 0 0 1 .73.07 1.28 1.28 0 0 0 1 0 .24.24 0 0 1 .08-.06 1.42 1.42 0 0 1 .33-.11s.2-.06.22 0a6.43 6.43 0 0 1 -.87-1.08 5.42 5.42 0 0 1 -.76-2.26 16.83 16.83 0 0 1 .34-3.6c.45-3.72-.59-7.56.21-11.22.21-.92.52-1.82.64-2.75a24.33 24.33 0 0 0 -.14-4 61.29 61.29 0 0 1 .39-6.34 11.44 11.44 0 0 0 -1-6.18 13.82 13.82 0 0 1 -1.07-2 14.06 14.06 0 0 0 -.58-1.84 1.39 1.39 0 0 0 -1.58-.78l-.12-.37a3.31 3.31 0 0 0 .86-.94 2.93 2.93 0 0 0 .18-2.320001c-.06-.22-.14-.43-.22-.64a4.75 4.75 0 0 0 -.16-.82 1.82 1.82 0 0 0 -.76-1.08 14.26 14.26 0 0 1 -1.74-.3h-.08l-.45-1.44a2.46 2.46 0 0 0 .54-2.49c-.22-.87-.68-1.67-.88-2.54a11.81 11.81 0 0 0 -.55-2.73c-.69-1.4-2.53-1.86-4.08-1.59a31 31 0 0 0 -4.41 1.59 21.83 21.83 0 0 1 -2.65.66c-3.09.65-6.36 1.26-9.36.28a2.57 2.57 0 0 0 -1.81-.2 4.21 4.21 0 0 0 -.59.38 5 5 0 0 1 -2.65.56c-.93 0-1.86 0-2.78 0a2.74 2.74 0 0 1 -1.79-.42 6 6 0 0 1 -.87-1 10.07 10.07 0 0 0 -.85-.88 2.55 2.55 0 0 0 -1.33-.61 4.43 4.43 0 0 0 -1.4.15 18.3 18.3 0 0 0 -2.3.66 8.45 8.45 0 0 1 -.85.28 6.54 6.54 0 0 1 -2.07.13 6.44 6.44 0 0 1 -1.32-.16 5.2 5.2 0 0 1 -2.26-1.3 16.28 16.28 0 0 1 -1.72-2l-1-.71c-.93-.55-1.41-1.62-2.23-2.32a1.35 1.35 0 0 0 -.61-.33 1.54 1.54 0 0 0 -1 .37 3.58 3.58 0 0 0 -1.75 2.3c-.06.51.08 1 0 1.55a2.69 2.69 0 0 1 -.43 1c-.64 1-1.51 1.79-2.18 2.76-.53.77-.91 1.63-1.47 2.38a10.11 10.11 0 0 1 -.91 1c-1.64 1.64-3.63 2.84-5.34 4.39a25.32 25.32 0 0 0 -2.25 2.38c-.49.59-1 1.15-1.47 1.77a11.79 11.79 0 0 1 -.93 1.340001 8.09 8.09 0 0 0 -1.72 2.59 22.91 22.91 0 0 0 -.9 2.92 19.23 19.23 0 0 0 -.43 2c0 .06-.14.82 0 .79a9.49 9.49 0 0 1 2.07.23c5.31.74 5.37 4.78 5.21 6.3s-4.28 3.83-4.28 3.83c-1.82 3.45-2.24 11.88-1.22 14.2s6.9 14.44 12.32 25.75 5.52 32.68 5.52 32.68c-.35 7 3.35 4.26 3.35 4.26 1.26-1.19 7.57-2.07 7.66-2.47s-.16-11-.19-15.08-3.44-13.32-4.6-17.13-9.84-18.84-10.96-20.63-.72-2.89-.58-3a2.37 2.37 0 0 1 2.12 0c.72.54 8.42 13.22 10.42 16.81a96 96 0 0 1 7.41 19.37c1.49 6.38.79 23.58.79 23.58a18.85 18.85 0 0 0 -8.68.53c-.89.28-4.43 1.4-5.36 2.15a3.31 3.31 0 0 0 -1 4.33c1 2.35 2.63 1.81 5.65 2.11s3.1-1.37 3.87-2.32 2.54-3.8 3.3-4.54a1.47 1.47 0 0 1 2.29.69c.11.77-.8 2-1.67 3.85s0 2 0 2a66.22 66.22 0 0 0 22.07-1.77l.52.32.57-.35s1.84-.62 1.84-5.4z"/><path d="m180.80627 189.31476a1.22 1.22 0 0 0 -.25-.31 1.5 1.5 0 0 0 -.78-.38 1.59 1.59 0 0 0 -.89.24c-.44.25-.89.47-1.34.7-.93.48-1.86 1-2.78 1.47-.73.4-1.51.71-2.24 1.12a23.47 23.47 0 0 0 -2.08 1.31c-1.4 1-2.65 2.12-3.95 3.22a3.82 3.82 0 0 0 -1 1.11 2 2 0 0 0 -.08 1.59 2.6 2.6 0 0 0 1.58 1.39 6.72 6.72 0 0 0 2.14.31 20.26 20.26 0 0 0 6.31-.58c.49-.14 1-.38 1.16-.87s-.35-1.07-.63-1.59a3.32 3.32 0 0 1 .5-3.45 18.31 18.31 0 0 1 2.66-2.54 14.4 14.4 0 0 0 1.22-1.25c.28-.39.69-.97.45-1.49z"/><path d="m224.67627 172.10476c-.25-2.89-.46-5.78-.65-8.67a18.8 18.8 0 0 0 -.21-2.71c-.29-1.37-.39-2.79-.64-4.17s-.56-2.77-.9-4.15a79.88 79.88 0 0 0 -2.6-8.44c-.93-2.53-2-5-3.13-7.45-1-2.11-2.06-4.19-3.2-6.22-.91-1.61-1.85-3.19-2.85-4.75-.66-1-1.34-2-2-3-.26-.37-.52-.73-.8-1.09a30.83 30.83 0 0 0 -19.89-6.72c-12 .33-44.55-.51-46.88-1.21a14.94 14.94 0 0 1 -4.12-2.12c-.47-.23-1.17-.09-1.17 2.59s-.21 23-.49 24.67.89 6.19 1.59 6.57 1.15-.33 1.19-1.14.55-5.1 1.15-5.12 1.39-.18 1.32 1.23a9.19 9.19 0 0 0 0 1.05 13.38 13.38 0 0 0 .11 1.41 9.38 9.38 0 0 0 .31 1.47 4.39 4.39 0 0 0 .56 1.25 1.8 1.8 0 0 0 .89.72 1.26 1.26 0 0 0 .47.08c.95 0 .92-1.09.92-1.09.09-.5.13-1 .26-1.49 0-.13.09-.26.14-.39a2.3 2.3 0 0 1 .75-1.2.81.81 0 0 1 1.09.41 1.71 1.71 0 0 1 .09.45 8.28 8.28 0 0 0 .73 2.24c.2.42.43.83.61 1.25a2.42 2.42 0 0 0 .5 1 1.16 1.16 0 0 0 .48.25 1 1 0 0 0 1.13-.47 7.69 7.69 0 0 0 .66-2.17 4.29 4.29 0 0 1 .87-2.08 1.12 1.12 0 0 1 .7-.33 1 1 0 0 1 .84.45 3.58 3.58 0 0 1 .39 1.11c.24.88.49 1.77.79 2.63a27 27 0 0 1 .8 2.65 3.32 3.32 0 0 0 .15.54 2 2 0 0 0 .44.57.62.62 0 0 0 .38.18c.57 0 .84-.78 1-1.22a12.76 12.76 0 0 0 .44-1.64c.21-1 .35-2.06.54-3.1a2.57 2.57 0 0 0 .08-.38c.07-1.23 2.11-2.72 2.37-.85-.11 1.76 0 10.6 2.91 6.32a6.27 6.27 0 0 0 .72-2.33 4.49 4.49 0 0 1 .88-2.33c.47-.47 1.11.08 1.39.48a3.86 3.86 0 0 1 .49 1.12 18.31 18.31 0 0 1 .35 2.22 7.94 7.94 0 0 0 .51 2.11 4.33 4.33 0 0 0 .41.69 2.76 2.76 0 0 0 .61.62h.07a.58.58 0 0 0 .4.1.52.52 0 0 0 .22-.14.91.91 0 0 0 .15-.23c.12-.26.18-.54.28-.81a8.87 8.87 0 0 0 .29-.87l.15-.52a11.28 11.28 0 0 1 1-2.78c.07-.12.14-.24.22-.35 2.57-2.21 1.49 5.37 2.92 6.56 2.12 2.72 1.86-2.47 2.42-3.62 4.1-2.75.09 8.19 4.21 7.48a.56.56 0 0 0 .07-.18.76.76 0 0 0 .06-.2 3 3 0 0 0 .08-.43 6 6 0 0 0 0-.95c0-.68-.11-1.37-.1-2.05a3 3 0 0 1 .46-1.81 1.67 1.67 0 0 1 .25-.28c.48.08.63.73.71 1.13 0 .22.08.44.1.67.08.85.12 1.7.19 2.55a12.37 12.37 0 0 0 .25 1.71 4.87 4.87 0 0 0 .52 1.44 4.06 4.06 0 0 0 .26.36l.15.15s.11.13.16.14c2.83.34 2.6-3.7 3.52-5.51 2.37-2.61 2.46 5.34 2.58 7.32a.74.74 0 0 0 .27.51 9 9 0 0 1 1.79 1.92 5.49 5.49 0 0 1 1 2.92 9.4 9.4 0 0 0 0 1.3 6.51 6.51 0 0 0 .43 1.29 7.52 7.52 0 0 0 1.81 2.54 13.22 13.22 0 0 1 3.7 11.77c-2.81 8.58-6.1 5-12.88 7.46s-5.73 7.23-5.73 7.23c.09 1.57 2.11 2.28 3.88 2.25a2.69 2.69 0 0 0 2.39-1.59 2.07 2.07 0 0 1 .9-1 3.15 3.15 0 0 1 .64-.31 3 3 0 0 1 3.49.77c.37.54 1.31 1.66 4.22 1.73s3.86-.75 3.86-.75a4.37 4.37 0 0 1 1.75-1.31 7.85 7.85 0 0 1 2.8-.52 2.72 2.72 0 0 1 2 .47 11 11 0 0 0 1.75 1.45c.91.45 18.35 4.24 18.67-2.7a100.77 100.77 0 0 0 -.65-13.33c-.39-3.73-.83-7.5-1.16-11.28z"/><path d="m214.39627 120.74476c-3-1.21-2.33.82-2.33.82a97.71 97.71 0 0 1 7.09 12.25c.59 1.21 1.16 2.44 1.7 3.68a88.93 88.93 0 0 1 4.37 12.36 74 74 0 0 1 2 10.86c.29 2.5.55 5 .78 7.49.47 5.06.85 10.13 1.31 15.19a109.46 109.46 0 0 1 .86 11.14c-.05 3.28 1.74 4.86 4.54 4.47s4.27-4.47 4.3-8.1-1.21-27.84-6.59-43.89-15.09-25.06-18.03-26.27z"/></g><path d="m126.60547 27.095703c-.21428.05288-.4131.154508-.58008.298828l-.0488.05078c-.74118.818782-.79662 2.048483-.13086 2.929688 1.06 1.88 3.27992 4.548828 3.41992 5.048828s-4.45898 5.780156-5.45898 6.910156-4.52984 5.001719-6.08984 4.511719c-2.4325-.3986-4.82549-1.01105-7.15039-1.830078-2.6264-.750414-5.34888-1.111241-8.08008-1.070313 0 0-12.680549-.08062-14.060549-.390624-1.38-.310001-3.22914-2.949375-3.36914-3.359376-.20606-1.657083.225564-3.33014 1.208984-4.679687 1.35-1.5 1.941016-2.110547 1.541016-3.310547s-2.189532-.950547-2.519532-.560547-2.61164 3.819766-2.93164 3.759766c-1.35.81-3.998672-2.189844-4.888672-3.089844 0 0-1.721172-1.589531-3.201172-.519531s.590078 2.999219.830078 3.199219 5.891328 5.249843 6.111328 5.839843 1 1.000079 0 2.080078c-.23438.212058-.545908.32105-.861328.300782-.188-.0046-.373884-.02523-.558594-.06055-.2699-.08495-.53233-.19553-.78125-.330078-.54144-.178325-1.101862-.292285-1.669921-.339844-.52-.07-1.000313-.159531-1.570313-.269531-.86424-.287718-1.63935-.794827-2.25-1.470703-1.43884-1.187761-3.217688-1.888064-5.080078-2-1.95015-.212779-3.922468-.08652-5.830078.371093-1.95435.576321-3.744376 1.603957-5.228516 3-.73822.917609-1.035097 2.113439-.810547 3.269532.0448.302256.225485.568167.490235.720703.53409.234218.850487.790308.779297 1.36914-.210001 1.12-.740235 1-.740235 1-1.12021.193994-2.130384.791341-2.839844 1.679688-.92853.981642-1.718729 2.086354-2.349609 3.28125-.28989.543849-.457374 1.144357-.490234 1.759765-.0239.270041.03186.540462.160156.779297.17162.22894.403552.405308.669922.509766 1.45.68 3.089453 1.000547 4.439453 1.810547.78.49 1.440937 1.159922 2.210937 1.669922.74544.569463 1.704491.778612 2.619141.570312.31742-.144882.65432-.243597 1-.291015.17702.01636.353004.0546.521484.111328.85.27 1.699297.53914 2.529297.86914.76461.335439 1.54909.622043 2.34961.859375.69.17 1.399843.230391 2.089843.400391.47468.112706.923283.316083 1.320313.599609.21147.16032.113979.498427-.150391.521485-.66782.04432-1.321597.210622-1.929687.490234-.54099.331131-1.059632.698254-1.550782 1.099609-1.93 1.370001-4.438828 1.540157-6.798828 1.660157l-1.089843.160156c-1 0-2.450938-1.661328-3.710938-2.861328-.53782-.501725-1.372336-.501725-1.910156 0-.44.33-.680235.900078-1.240235 1.080078l-.238281.08008c-.41022.217585-.732106.571133-.910156 1-.2296.430134-.343398.912998-.330078 1.400391-.0512.581699.206727 1.147742.679687 1.490234.30013.211766.581044.44832.839844.708984.55008.540628.968333 1.202823 1.220703 1.931641.12388.294153.184868.610557.179688.929688-.28 2.18-.000938 3.229843 1.539062 6.339843s8.660391 2.94 10.400391 3 1.999844.279532 2.589844 1.269532-1.869141 3.470703-1.869141 3.470703c-1.81 2-3.630078 3.999062-5.580078 5.789062-1.5523 1.299027-2.958786 2.765557-4.191406 4.371094-.24.36-.458985.730078-.708985 1.080078s-.719609.888359-1.099609 1.318359l-1 .85156c-.15085.14263-.294058.29205-.429688.44922-1.0176 1.10124-1.929053 2.29692-2.720703 3.57032-1.27388 2.01565-2.231484 4.21399-2.839844 6.51953-.343589 1.35535-.544289 2.74349-.599609 4.14062-.03.58295-.03 1.16705 0 1.75.24029 1.74663.781259 3.43835 1.599609 5 .756791 1.71432 1.42435 3.46667 2 5.25.340001 1.11.630001 2.24938 1 3.35938.13851.5199.326567 1.02526.560547 1.50976.27.49.560078 1.00118.830079 1.45117l1.089843 2.04883c.95333 1.8 1.888594 3.60969 2.808594 5.42969 1.1 2.16 2.177139 4.33481 3.230469 6.52148 1.08 2.26 2.130859 4.53008 3.130859 6.83008.89 2.08 1.75 4.1686 2.5 6.3086.60949 1.62098 1.067241 3.29474 1.369141 5 0 0 3.359765 19.05031 3.509765 25.82031 0 0 .65 3.22976-2 3.50977-2.65.28-13.320546 3.7496-13.810547 7.3496-.49 3.6.830157 6.77118 3.160157 7.45118 0 0 12.259844-.4 18.339843 0 5.89282.38768 32.758488.0745 40.283208-1.82032l.041-.008.10352-.0273c.18457-.0486.41366-.0939.57226-.14453l.14063-.0508 1.95898-1.30469c-.4701.55543-1.08417.99951-1.8789 1.28515 5.54-1.6 5.75-5.41015 5.75-5.41015v-37.90022s.50078-7.63 11.80078-8.25 28.61875 2.17133 41.21875 10.36132c0 0 7 3.6686 7 10.3086v2.16992c0 1.84.00078 3.67-.19922 5.5.0147.0489.0147.10148 0 .15039 0 .06-.0904.0794-.15039.10938-1.97853.78827-4.04299 1.34243-6.15039 1.65039-1.15.2-2.29992.3914-3.41993.6914-1.13704.32507-2.255.71053-3.3496 1.15821-1.19117.45153-2.34399.99742-3.44922 1.63086-1.68753.90141-3.18514 2.12027-4.41016 3.58984-.99659 1.22155-1.62214 2.70317-1.80078 4.26953 0 0 .38078 5.77148 4.80078 5.77148l72.66992-1s4.16914 1.20993 3.61914-11.08007c0 0-1.25984-33.34-5.58984-44 0 0-11.82992-34.31118-41.66992-35.20117 0 0-39.89938-2-43.10938-2 0 0-11.63945 1.16039-11.68945-10.099614 0 0 2.27953-27.57086-4.23047-38.13086 0 0-8.36055-10.16875-9.06055-11.21875 0 0-.82984-1.251015 1.16016-4.291015.17-.22.33953-.449922.51953-.669922l.61133-.779297c.26-.35.52883-.69.79883-1l1-1.220703 1.08984-1.369141 1.21094-1.490234 1.26953-1.550782 1.32031-1.580078 1.29883-1.568359 1.33008-1.5c.62-.71 1.26992-1.400078 1.91992-2.080078.24686-.225344.45726-.489908.62109-.78125.17122-.355325.27981-.736567.32032-1.128906.045-.217698.045-.442459 0-.660157-.0448-.230755-.18298-.433657-.38086-.560546-.2302-.100378-.47934-.151864-.73047-.150391-.33255-.03231-.66745-.03231-1 0-.33578.03754-.65735.153894-.93945.339844-.49538.362439-.96943.753006-1.41993 1.169921l-1.08007 1c-.46.49-1 .920626-1.5 1.390626l-.1504.15039c-.0591.05812-.12212.111764-.18945.160156-.0461.01033-.0945.01033-.14062 0-.135.03017-.27516.03017-.41016 0-.37877-.117236-.72243-.328193-1-.611328-.11766-.1092-.22798-.225735-.33008-.349609-.28-.32-.51929-.68-.77929-1s-.57891-.73961-.87891-1.099609c-.3-.36-.53031-.660001-.82031-1-.22453-.251125-.47966-.473037-.75977-.660157-.67639-.494321-1.52606-.691643-2.35156-.548828zm-60.181642 13.867188c.900464-.01172 1.802139.05747 2.69336.210937.809839.107974 1.588152.380984 2.289062.800781.67.43 1.209844.999297 1.839844 1.529297.59922.433825 1.27926.7434 2 .910156.52075.126509 1.048348.224347 1.580078.291016l.800781.109375c.18971.01482.37865.01482.568359 0 .116471-.0097.235093-.0097.351563 0 .11423.01585.223833.05793.320313.121094.269999.15.518828.299687.798828.429687.38412.192289.781313.356299 1.189453.490235 1.11037.350816 2.258272.567437 3.419922.648437 2.00007.08501 4.00338.05512 6-.08984 5.45984-.14013 10.924479.05053 16.361329.570313 1.40418.06605 2.79676.290734 4.15039.669922 2.28.73 4.36 2.349531 6.75 2.269531l.89844-.04883c.4413-.114583.87703.20482.90039.660156-.007.44552-.25641.852422-.65039 1.060547-.38697.202247-.79983.346787-1.22852.429688-.42957.08924-.82735.292966-1.15039.589843-.56233.657576-.41589 1.658898.31055 2.128907.61.36 1.37812.190312 2.07812.320312 1.31565.432691 2.31912 1.507282 2.66016 2.849609.13847.593469.42765 1.140982.83984 1.589844.39806.28777.86405.471349 1.35157.53125.94867.124695 1.88017.352404 2.77929.679688.90128.33207 1.58867 1.075618 1.84961 2 .0251.476335.0251.953352 0 1.429687.09 1.39 1.08039 2.67.90039 4 0 .2-.0698.399844-.0898.589844l-.13086.349609c-.28.88-1.65844.859844-2.39844 1.089844-.8019.207342-1.49665.711422-1.94141 1.410156-.42.69-.51914 1.641172-1.11914 2.201172-.83.77-2.63945.68-3.68945.75-.94804-.01014-1.8921.138032-2.79101.439453-.9.39-1.46055 1.230704-2.31055 1.720703-.87377.440049-1.84024.658434-2.81836.638672-.83652-.04904-1.66306.203734-2.33008.710938-.25307.306905-.60794.512806-1 .580078-.52882.04998-1.06102.04998-1.58984 0-1.17086-.08255-2.31466-.398459-3.36133-.929688-.84577-.41746-1.77557-.633967-2.71875-.630859-1.080001 0-2.130938.489453-3.210938.439453s-1.410078-.488281-1.830078-1.488281c-.23268-.691461-.837697-1.192323-1.560547-1.291016-.76-.06-1.33.530782-2 .550782-.47552-.06142-.938966-.190201-1.378906-.38086-.81-.22-1.93086.140703-2.63086-.279297-.50571-.414592-.953168-.895297-1.330078-1.429687l-.429687-.480469c-.16-.17-.310704-.34-.470704-.5-.178179-.138086-.332414-.303692-.458984-.490234-.06-.11-.08062-.239375-.140625-.359375-.06-.12-.100391-.121407-.150391-.191407-.0761-.09406-.120446-.209348-.128906-.330078.001-.211176.04953-.418873.140625-.609375.0281-.06711.06804-.127897.119141-.179687.0679-.05465.142423-.102229.220703-.140625.20232-.12347.334825-.334572.359375-.570313-.01-.113128-.01-.226715 0-.339843.0837-.173323.235842-.303201.419922-.359375.85372-.383057 1.785893-.560665 2.720703-.519532l.558594.07031c.37084.02072.740742-.0592 1.070312-.230469.3335-.177623.562028-.506234.611328-.880859.02-.37639-.17327-.731993-.5-.919922-.18525-.07541-.380828-.121269-.580078-.138672-.58801-.06253-1.168319-.187639-1.730469-.371094-.542889-.211459-1.065646-.471863-1.560546-.779297l-1.679688-1c-.44849-.214932-.84225-.529549-1.15039-.919922-.30412-.455505-.364147-1.03272-.160157-1.541015l.150351-.529296c.08-.71-.730391-1.140625-1.400391-1.390625-2.78-1-5.439609-2.319375-8.099609-3.609375l-7.339844-3.560547c-1.2878-.525518-2.454597-1.306957-3.429687-2.298828-.4276-.619875-.895651-1.21262-1.400391-1.771484-.51097-.4043-1.044829-.777417-1.599609-1.119141-.61015-.422949-1.07981-1.019289-1.34961-1.710938-.1181-.319288-.163399-.661129-.130859-1 .0584-.330461.180035-.64605.359375-.929687.14815-.27069.358258-.503115.611328-.679687.19-.140001.399609-.270391.599609-.400391.40717-.252719.831072-.476522 1.269532-.669922.50609-.214176 1.032242-.378526 1.570312-.490234.886925-.176607 1.787036-.269534 2.6875-.28125zm-8.30664 10.77539c.118802 0 .237448.037.339843.107422.19.14.378594.298984.558594.458985.1018.07804.189466.172.259766.279296.10404.213008.09707.463499-.01953.669922-.10233.195948-.229016.378535-.378906.541016-.48.58-.900625 1.209062-1.390625 1.789062-.14431.194733-.333601.353334-.550781.460938-.17951.06312-.369074.08731-.558594.07031-.45328-.02074-.898747-.129737-1.310547-.320312-.0726-.02797-.137093-.07334-.189453-.13086-.0414-.04604-.07204-.100839-.08984-.160156-.0762-.432424.02766-.875676.289063-1.228515.08-.153333.169531-.304505.269531-.451172.60646-.818413 1.402923-1.477217 2.320313-1.919922l.109375-.05859c.102395-.07042.222994-.107422.341797-.107422zm5.458984 3.015625c.0996-.03953.210997-.03953.310547 0l.638672.101563.419921.259765c.0413.02789.07963.06118.111329.09961.005.03985.005.07929 0 .11914.006.100441-.000532.201963-.01953.300782-.01.115686-.05239.22674-.121093.320312-.085.09031-.181763.168258-.289063.230469-.38.24-.660312.638594-1.070312.808594-.29646.06001-.586359.155215-.861329.28125-.1.06-.179531.148984-.269531.208984-.17172.102631-.370582.152024-.570312.140625-.19443-.01491-.38442-.05634-.56836-.121094-.13097-.02971-.255178-.08766-.361328-.169922-.16546-.14882-.24638-.369025-.21875-.589843.0344-.218676.134733-.421397.289063-.580079.15381-.155662.324685-.29338.509765-.410156.62199-.458856 1.324253-.797961 2.070313-1zm5.759766 2.111328h.78125c.0797-.0096.158571-.0096.238281 0 .0912.0386.171068.1004.230469.179688.328879.458453.489151 1.01714.451171 1.580078.0339.168306.0339.34146 0 .509766-.0359.146828-.12494.274491-.25.359375-.0723.0402-.150108.07031-.230468.08984l-.519532.140625c-.21979.06894-.45148.09922-.68164.08984-.40091-.105847-.794668-.236715-1.179688-.390625-.17 0-.359297.0016-.529297-.06836-.16747-.02754-.329968-.08171-.480468-.160157-.12636-.05477-.234617-.144867-.310547-.259765-.0462-.09017-.07358-.189891-.08008-.291016-.011-.250349.06394-.496279.210937-.699219.17698-.209845.39127-.387491.63086-.521484.306079-.216357.643259-.384948 1-.5zm5.40039 2.279297h1c.25257-.0166.505845.02553.740234.121094l.490235.169922c.13239.190768.21803.408681.25.638672.0468.149235.01286.31173-.08984.429687-.0987.07019-.219354.103963-.339844.0918-.52871-.04306-1.061152.0094-1.570312.158203-.19.09-.370781.210547-.550781.310547-.76095.432912-1.656266.566021-2.509766.371094-.0922-.01657-.180216-.05207-.259766-.101563-.17166-.179114-.214755-.445324-.109375-.669922.20881-.559699.649285-1.000174 1.208985-1.208984.55647-.20773 1.146254-.313312 1.740234-.310547zm1.458984 4.541016.490235.138672c.22.13.591172.359843.451172.589843-.12771.174009-.31875.292258-.53125.330079-.86715.259529-1.684932.663106-2.419922 1.191406-.21731.171562-.447503.324374-.689453.458984-.18.1-.380781.159532-.550782.269531-.17.11-.349062.280391-.539062.400391-.1799.09964-.371643.177348-.570312.230469-.432501.114923-.887813.114923-1.320313 0-.18249-.03999-.344214-.143604-.458984-.291016-.0663-.108877-.105429-.232049-.111329-.359375-.03-.572394.270325-1.112463.771485-1.390625.17905-.08363.361498-.155826.548828-.21875.23-.1.459687-.229609.679687-.349609 1.310771-.683438 2.77201-1.027257 4.25-1zm6.548829.617187c.187695.02332.373857.07433.552734.152344.86.5.908828 1.759219.548828 2.699219-.48391 1.236132-1.446722 2.2245-2.669922 2.740234-.45381.152039-.890984.346297-1.308593.580078-.42183.307452-.729294.747644-.871094 1.25-.197.535501-.0907 1.135929.279297 1.570313.40688.427135 1.109326.347285 1.410156-.160156l.580078-.34961c.32-.37 1.480625-.19039 1.890625-.15039.50002.03022.982195.200204 1.390625.490234.84715.815822 1.640966 1.683818 2.378906 2.599609 1.1 1.09 2.761094.52 4.121094 1 .46689.221252.98827.301666 1.5.230469.34172-.103391.67585-.231222 1-.380859.57-.21.658906.0012.878906.53125.62593 1.553206 2.266997 2.442046 3.910157 2.11914 1.096-.28631 2.227332-.4101 3.359372-.36914 1.09.22 2.05086.908984 3.13086 1.208984.92064.23679 1.87002.344799 2.82031.320313.93754.175877 1.90582-.04812 2.66993-.619141.28631-.409526.75045-.658232 1.25-.669922h1.10937c1.061-.05213 2.09218-.370239 3-.921875.81-.5 1.40961-1.419922 2.34961-1.669922 1.2435-.208365 2.50145-.331123 3.76172-.36914 1.01476-.03331 1.99256-.382943 2.79883-1 .54033-.728374.95358-1.543479 1.2207-2.410157.59-1.08 1.76906-.950078 2.78906-1.330078.62116-.207228 1.16144-.607051 1.54102-1.140625h.10937c.2505.09775.49221.21958.72071.361328.1255.07079.22087.184686.26953.320313.08.26-.14.5-.25.75-.13937.47416-.0542.984679.23047 1.388672.28642.39628.50926.835693.66015 1.300781l-1.78125 1.619141c-1.4794 1.923128-3.74462 3.080034-6.16992 3.15039-.75358-.0878-1.51582.04162-2.19922.371094-.38132.312395-.71782.675886-1 1.080078-.83039.980137-2.05535 1.537207-3.33984 1.519531-.81749-.169564-1.66588-.125873-2.46094.128907-.38262.256383-.72046.575362-1 .941406-2.00129 2.080001-5.16549 2.520335-7.66016 1.068359-1.07999-.67-2.06007-1.72-3.33007-1.75s-2.13899.8-3.208988 1.25c-1.728629.693381-3.696066.41297-5.160156-.738281-.50315-.505502-1.101055-.908168-1.759765-1.181641-1-.27-2.000391.331407-2.900391.691407-2.54573.910847-5.390093.208527-7.220703-1.78125-.46933-.642163-1.015796-1.221827-1.628906-1.728516-.59-.39-1.330625-.55-1.890625-1-.80061-.828841-1.260033-1.928072-1.289063-3.080078l-.191406-.669922c-.0164-.729098-.62052-1.307775-1.349609-1.291016-.70263.05173-1.363781.348951-1.869141.839844-.50514.462762-1.062336.866618-1.660156 1.201172-1.58.76-3.690547-.0011-5.060547 1.128906-.68.56-1.000235 1.47-1.740235 2-.60768.352507-1.29748.539769-2 .541016-1.07.07-2.138984.100078-3.208984.08008-.85467.03995-1.70779-.108429-2.5-.431641-1.25331-.609884-1.999124-1.930432-1.871094-3.318359.0272-.323028.12385-.63653.28125-.919922.48109-.681957 1.26505-1.085417 2.09961-1.080078.81521.0021 1.627292.09851 2.419921.289063 3.089831.537486 6.268572.190832 9.169922-1 1.12-.47 2.179297-1.060079 3.279297-1.580079 1.02366-.425351 2.02496-.902325 3-1.429687 1.19037-.695007 2.228621-1.624098 3.050781-2.730469.401611-.649666.885084-1.244141 1.439454-1.769531.437107-.389468 1.01504-.562153 1.578125-.492188zm-27.634766 2.060547c.153764-.0297.316697-.01488.466797.05078.29506.131017.528371.37103.65039.669922l.369141.580078c.10993.386774.32945.733856.630859 1 .25.180001.570547.241641.810547.431641.29414.241306.408463.638769.289063 1-.0261.100445-.08612.188765-.169922.25-.057.03779-.121543.06012-.189453.06836-.32661.0829-.66318.121255-1 .111329-.0831.0096-.16694.0096-.25 0-.0768-.03126-.148718-.07607-.210938-.13086-.67971-.581105-1.253938-1.27332-1.699218-2.048828-.16415-.205041-.280164-.445392-.339844-.701172-.03-.165316-.03-.334684 0-.5.028-.20314.105635-.396385.228515-.560547.114846-.11684.260299-.190999.414063-.220703zm10.601563 1.341797c.118749-.035.235703-.05.345703 0l.689453.140625c.0734.267774-.0022.554346-.199219.75-.19251.137456-.397948.257285-.611328.359375-.26.16-.458516.420547-.728516.560547-.16888.07231-.34869.118151-.53125.138672-.49271.03494-.987759.03494-1.480469 0-.139319.01957-.280601.01957-.419921 0-.12642-.05527-.241504-.133688-.339844-.230469-.12109-.0755-.2101-.191116-.25-.328125-.04-.26.171094-.44125.371094-.53125.1684-.07765.346067-.131651.529297-.160156.17786-.01044.352681-.0469.519531-.109375.08 0 .160234-.110156.240234-.160156.24479-.18117.536044-.289262.839844-.310547.22308.01498.446842.01498.669922 0 .115-.03.236719-.08414.355469-.119141zm7.515624 9.458984c.1111.01597.217647.0581.310547.121094.17029.101861.329466.218621.478516.34961.0911.06476.161952.155078.201172.259765.002.103859-.02924.206635-.08984.291016h-.03125c-.11348.208447-.277326.38387-.478515.509765-.24.140001-.51.219375-.75.359376-.15301.09765-.301357.20483-.441407.320312-.24871.18065-.508597.344587-.779297.490234l-.65039.369141c-.21838.129198-.445298.242658-.679688.339844-.67642.275145-1.432955.275145-2.109375 0-.13706-.05027-.259552-.136648-.351562-.25-.0414-.09781-.05733-.202743-.04883-.308594.0378-.513516.429253-.930531.939453-1h.40039c.19232-.02679.370796-.114389.509766-.25.22-.2.339844-.510156.589844-.660156s.819687-.000703 1.179687-.220703l.679688-.230469c.22382-.184815.47743-.329909.75-.429688.11662-.04978.244713-.07092.371093-.06055zm3.378907 2.400391c.2286.055.440198.168834.611328.330078.82.7 1.298516 1.770313 2.228515 2.320313l1 .708984c.51829.712095 1.094214 1.380956 1.720704 2 .63071.618223 1.408255 1.0664 2.259765 1.300781.4333.09874.875973.152511 1.320313.160157.69252.06705 1.391622.02231 2.070312-.13086.28808-.07825.57142-.171015.84961-.279297.75145-.269941 1.520541-.490568 2.300781-.660156.45569-.124316.928711-.175347 1.400391-.150391.493399.06904.953905.282436 1.328124.611329.300911.275834.586323.568616.851563.878906.25218.364441.543101.69982.869141 1 .53048.341986 1.163785.490265 1.791015.419922h2.779297c.918032.0607 1.835402-.131673 2.650392-.558594.18575-.142866.38294-.270833.58984-.380859.60752-.156483 1.25185-.08613 1.81055.199218 3 1 6.26937.370704 9.35937-.279296.89624-.164478 1.7817-.385066 2.6504-.660157 1.42776-.640548 2.90213-1.17191 4.41015-1.589843 1.55-.27 3.39008.189843 4.08008 1.589843.29036.885124.4738 1.801963.54883 2.730469.2.87.66086 1.669063.88086 2.539062.29733.865822.0883 1.825366-.54102 2.490235l.45117 1.441406h.0801c.57325.135846 1.15264.234866 1.73828.298828.37961.252151.65254.637623.76172 1.080078.0773.268103.13101.542811.16016.820313.08.21.15875.420625.21875.640625.26282.765025.19799 1.603033-.17969 2.318363-.22309.36607-.51454.68671-.85937.9414l.11914.36914c.64524-.14967 1.30652.178 1.58007.78125.23523.59933.4291 1.21396.58008 1.83985.30126.69486.65944 1.36378 1.07031 2 .90147 1.92695 1.24777 4.06677 1 6.17968-.2395 2.10517-.37029 4.2212-.39062 6.33985.15644 1.32723.20389 2.66508.14062 4-.12.93-.43062 1.83-.64062 2.75-.8 3.66.24102 7.49875-.20898 11.21875-.24229 1.18431-.35613 2.39283-.33985 3.60156.0824.80041.34182 1.57219.75977 2.25977.25022.39031.54105.75249.86914 1.08007h-.21875c-.11409.023-.225.0594-.33008.10938-.0306.0142-.0579.0351-.0801.0605-.31954.13559-.68046.13559-1 0-.23956-.0531-.48519-.0769-.73047-.0703-.31693.0227-.62924.0861-.92968.18946h-.0508c-.10667-.36571-.10667-.75343 0-1.11914.1-.39.27063-.77039.39063-1.15039.49-1.54.20906-3.19079.28906-4.80079.08-1.81.62977-3.57843.75977-5.39843.19-2.45-.37914-4.94157.13086-7.35157.39-1.83 1.38914-3.75898.36914-5.45898-.18435-.32843-.52235-.54027-.89844-.56055-.67 0-.95156.58086-1.10156 1.13086-.26343 1.17129-.38676 2.36989-.36914 3.57031l-.24024 9.43946c.01 1.64693-.13713 3.29118-.43945 4.91015-.36 1.66-1 3.24946-1.25 4.93946.0254 1.04206-.21327 2.07376-.69141 3-.32935.50943-.9037.80553-1.50976.77929-.72-.06-.9993-.61843-1.2793-1.14843-.75027-1.29277-1.04583-2.8008-.83984-4.28125.2-.9.71062-1.70938.89062-2.60938.28-1.36-.22141-2.73937-.44141-4.10937-.16187-1.30027-.23722-2.60965-.22851-3.91993 0-1.19999-.00008-2.41109-.0801-3.62109-.0468-.60842-.0136-1.22068.0996-1.82031.18758-.51211.405-1.01294.65039-1.5.5249-1.20507.13585-2.61198-.93164-3.37891h-.76953c-.45442.0783-.83422.39004-1 .82031-.14809.42078-.22127.86253-.21875 1.3086-.1 1.87-.20063 3.75109-.14063 5.62109.16448 1.99557.2037 3.99945.11914 6-.08.72-.19929 1.44016-.27929 2.16016-.11827 1.32988-.14819 2.66614-.0898 4v1.08984 1.16992c.0236.51599.0772 1.02925.16016 1.53907.06.5.0989 1.00125.12891 1.53125.0401.21481.0401.43362 0 .64843-.0591.18664-.15358.36162-.2793.51172-.29092.38868-.67119.69916-1.10937.90821l-.70118.39062c-1.28661.56205-2.4583 1.355-3.45898 2.33985-.36718.38215-.57471.88998-.58008 1.41992-.1 5.82-.79102 43.58-.79102 48 0 4.78-1.83984 5.3496-1.83984 5.3496-.31694.12823-.49695.20289-.75.25392-7.46694 1.54557-15.831691 2.02454-22.539061 1.47656 0 0-.86-.08 0-2s1.779922-3.07961 1.669922-3.84961c-.36902-.85959-1.437612-1.15954-2.201172-.61915-.76.74001-2.528828 3.57907-3.298828 4.53907s-.841094 2.63031-3.871094 2.32031-4.698438.24063-5.648438-2.10938c-.82913-1.48581-.39671-3.3583 1-4.33007.93-.75 4.469375-1.87039 5.359375-2.15039 2.81248-.85077 5.784588-1.03352 8.679688-.53125 0 0 .700937-17.20008-.789063-23.58008-1.76329-6.7053-4.247936-13.199-7.410156-19.36914-2-3.59-9.699922-16.27055-10.419922-16.81055-.66728-.33368-1.453813-.33368-2.121093 0-.140001.12-.539922 1.17.580078 3s9.8 16.84992 11 20.66992 4.589375 13.08086 4.609375 17.13086.281406 14.69008.191406 15.08008-6.400156 1.2807-7.660156 2.4707c0 0-3.69961 2.76828-3.34961-4.26172 0 0-.09148-21.36968-5.521484-32.67968-5.43-11.31-11.329844-23.38953-12.339844-25.76953s-.599297-10.74922 1.220703-14.19922c0 0 4.160547-2.31008 4.310547-3.83008s.09906-5.56078-5.210937-6.30078c-.67947-.15238-1.373963-.22998-2.070313-.23047-.15 0 0-.72906 0-.78906.10775-.67382.250968-1.34143.429688-2 .23469-.99228.53574-1.96771.90039-2.91993.40048-.96642.985303-1.84583 1.720703-2.58984.33256-.41562.636747-.853838.910157-1.310546.45-.62.99875-1.179532 1.46875-1.769532.69785-.841059 1.44942-1.636915 2.25-2.380859 1.71-1.55 3.701796-2.750625 5.341797-4.390625.32531-.312654.627523-.646734.908203-1 .56-.75.940703-1.608906 1.470703-2.378906.67-1 1.539687-1.779766 2.179687-2.759766.20998-.300547.355998-.640846.429688-1 .1-.51 0-1.000781 0-1.550781.23421-.978521.86938-1.812144 1.75-2.298828.27864-.238476.63324-.370773 1-.371094zm59.820311 31.742187c.13172-.0234.26336.0109.38086.0684 1.25473.91662 2.64391 1.63103 4.11914 2.11914 2.33.7 34.92086 1.54094 46.88086 1.21094 7.2049-.16209 14.23784 2.20445 19.87891 6.68945.28.36.54078.71984.80078 1.08985.7 1 1.38 2 2 3 1 1.56 1.93961 3.13999 2.84961 4.75 1.14 2 2.21117 4.1107 3.20117 6.2207 1.15 2.43 2.19891 4.91922 3.12891 7.44922 1.02164 2.76324 1.88923 5.58227 2.5996 8.4414.34001 1.38.6404 2.75844.9004 4.14844s.35062 2.79992.64062 4.16992c.1353.89708.20446 1.80372.20898 2.71094.19 2.89.4004 5.77992.6504 8.66992.33 3.78.76984 7.55008 1.08984 11.33008.51698 4.44373.73763 8.91758.66016 13.39062h.0195c-.32 6.94-17.75992 3.14922-18.66993 2.69922-.63183-.42162-1.21829-.90675-1.75-1.44922-.57958-.4121-1.29753-.58151-2-.4707-.95723.001-1.905.17693-2.79882.51953-.68489.28136-1.28707.73268-1.75 1.31055 0 0-1.00133.82-3.86133.75s-3.84875-1.19047-4.21875-1.73047c-.86683-.99722-2.28428-1.30943-3.49024-.76953-.22435.0788-.43967.18339-.64062.31055-.40298.22383-.7201.57576-.90039 1-.42367.9463-1.35216 1.56472-2.38867 1.58984-1.77 0-3.79086-.68-3.88086-2.25 0 0-1.04953-4.76047 5.73047-7.23047s10.0689 1.11906 12.8789-7.46094c.78532-4.29357-.59848-8.69758-3.69922-11.76953-.77421-.71087-1.39134-1.57521-1.81054-2.53906-.18797-.41381-.33178-.84718-.42969-1.29101-.03-.43281-.03-.86602 0-1.29883-.0472-1.04893-.39429-2.06224-1-2.91993-.49657-.70848-1.09223-1.34252-1.76953-1.88085-.15531-.12646-.25225-.31024-.26953-.50977-.12-2-.21008-9.93031-2.58008-7.32031-.92 1.81-.68953 5.84976-3.51953 5.50976 0 0-.13016-.10062-.16016-.14062l-.15039-.14844c-.0932-.11517-.17974-.23668-.25976-.36133-.24817-.44958-.42516-.93504-.52149-1.43945-.1231-.56347-.20663-1.13386-.25-1.70899-.07-.84999-.10945-1.70078-.18945-2.55078 0-.23-.0596-.44992-.0996-.66992-.08-.4-.23094-1.00086-.71094-1.13086-.0936.0836-.17745.17882-.25.28125-.342.53903-.50213 1.17169-.45898 1.8086 0 .68.0696 1.37078.0996 2.05078.0251.31617.0251.63305 0 .94922-.0162.14509-.043.29044-.0801.43164-.0107.0691-.0315.13563-.0606.19922-.0127.0636-.0348.12419-.0684.17968-4.12.71-.11094-10.23047-4.21094-7.48047-.56 1.15-.29992 6.3411-2.41992 3.6211-1.43-1.19-.34992-8.77055-2.91992-6.56055-.08.11-.1507.22961-.2207.34961-.45377.87882-.78999 1.81475-1 2.78125l-.14844.51953c-.0816.29481-.17942.58433-.29102.86914-.1.27-.15929.55055-.27929.81055-.0381.0838-.0891.16183-.15039.23047-.0602.0646-.13668.1134-.22071.14062-.14108.0168-.2838-.0204-.40039-.10156h-.0684c-.23482-.17313-.44203-.38153-.61133-.61914-.15772-.21681-.29514-.44725-.41015-.68945-.2658-.67667-.43717-1.38797-.50977-2.11133-.0711-.74647-.1876-1.48661-.34961-2.21875-.1028-.39699-.26844-.77617-.49023-1.12109-.28-.40001-.91867-.95047-1.38867-.48047-.50719.67814-.81312 1.48596-.88086 2.33007-.0852.8163-.33053 1.60802-.72071 2.33008-2.87 4.28-3.00015-4.55836-2.91015-6.31836-.26-1.87-2.29914-.38039-2.36914.84961-.017.1285-.0439.25444-.0801.37891-.19 1-.32906 2.07961-.53906 3.09961-.11009.55583-.25849 1.10433-.44141 1.64062-.16.44-.43 1.24071-1 1.22071-.14377-.0139-.27707-.0773-.3789-.17969-.17994-.16182-.33044-.35525-.44141-.57031-.0651-.17545-.11375-.35711-.14844-.54102-.22118-.89643-.48898-1.77937-.80078-2.64844-.3-.86-.54906-1.75086-.78906-2.63086-.0679-.38898-.20031-.76341-.39063-1.10937-.18593-.28235-.50178-.4528-.83984-.45117-.26513.0233-.51446.1404-.70117.33008-.47026.60336-.76978 1.32157-.86914 2.08007-.11153.75198-.33411 1.4832-.66016 2.16993-.22563.39578-.69111.58972-1.13086.4707-.17747-.0443-.34047-.12999-.47851-.25-.24244-.28974-.41367-.63221-.5-1-.18001-.42-.41133-.83-.61133-1.25-.34886-.70805-.5932-1.46259-.72852-2.24024-.01-.15336-.0397-.30395-.0898-.44922-.14595-.43858-.62928-.66631-1.06055-.5-.36466.30333-.62663.71192-.75 1.16993-.05.13-.10062.25867-.14062.38867-.13.49-.16977 1.00023-.25977 1.49023 0 0 .00008 1.09985-.91992 1.08985-.16033.003-.32055-.0238-.47071-.0801-.3671-.13675-.67826-.38829-.88867-.71875-.25092-.3848-.44042-.8066-.56054-1.25-.14247-.48092-.24669-.9732-.31055-1.4707-.0615-.46773-.0976-.93855-.10938-1.41016-.02-.34971-.02-.70107 0-1.05078.07-1.41-.72031-1.23852-1.32031-1.22852s-1.10039 4.31914-1.15039 5.11914-.48945 1.51063-1.18945 1.14063-1.85985-4.85031-1.58985-6.57031.49024-21.99993.49024-24.66993c0-2.0025.3939-2.58789.78906-2.6582zm-78.830077.86719c2.03763.12266 2.943734 2.62088 1.458985 4.02148-1.48475 1.40059-3.924045.34992-3.927735-1.6914.0326-1.3282 1.14091-2.37495 2.46875-2.33008zm155.181637 8.20117c.35672-.0216.87188.0741 1.60938.36914 2.95 1.18 12.63 10.15047 18 26.23047s6.58859 40.29969 6.55859 43.92969-1.46976 7.70133-4.25976 8.11132l.0215-.0117c-2.8.39-4.59101-1.18875-4.54101-4.46875-.0968-3.72555-.38326-7.44436-.85938-11.14063-.46-5.06-.84055-10.12945-1.31055-15.18945-.23-2.5-.48929-5.00024-.77929-7.49024-.39526-3.66476-1.06379-7.29423-2-10.85937-1.15059-4.2219-2.61232-8.35446-4.3711-12.36133-.54-1.24-1.10922-2.46969-1.69922-3.67969-2.06409-4.24936-4.43348-8.34343-7.08984-12.25 0 0-.34945-1.12476.7207-1.18945zm-33.04101 68.25c.29176.0471.56241.17817.77929.37891.0998.0889.18421.19421.25.31054.28001.52-.12898 1.10024-.45898 1.49024-.381.44097-.78911.8584-1.2207 1.25-.96967.75524-1.86099 1.60721-2.66016 2.54101h.01c-.80558.96295-.99906 2.29719-.5 3.44922.28.52.78086.99985.63086 1.58985s-.67016.72914-1.16016.86914c-2.05989.5231-4.18981.71889-6.31055.58007-.72539.0129-1.44675-.0904-2.13867-.30859-.69902-.21997-1.27283-.72533-1.58008-1.39062-.19451-.51823-.16547-1.09376.0801-1.58985.25702-.43221.59686-.8088 1-1.10937 1.3-1.1 2.54922-2.25071 3.94922-3.22071.66997-.4727 1.36434-.91051 2.08008-1.31054.73-.41 1.51023-.71914 2.24023-1.11914.92-.5 1.8493-1.00071 2.7793-1.47071.45-.23.89984-.44922 1.33984-.69922.26646-.16613.57677-.24987.89063-.24023zm-107.490236 8.43945c.44448-.0937.895879.12525 1.099609.53125.38871.60077.42646 1.36345.09961 2-.365949.45378-.792931.85376-1.269531 1.18946-.63182.54343-.930842 1.378-.789062 2.19922.14804.49442.400614.95121.740234 1.33984.34168.38665.600116.83941.759766 1.33008.19019.51422-.02707 1.08959-.509766 1.34961-.72352.27297-1.503314.37022-2.271484.28125-2.22-.15-4.430157-.30133-6.660157-.36133h-2.36914c-.4093.0135-.816429-.0537-1.199219-.19922-.21219-.0776-.408748-.19258-.580078-.33984-.27333-.23806-.484318-.54138-.611328-.88086-.37244-1.2438-.01728-2.58972.919922-3.48829.9222-.87394 2.011502-1.55402 3.201172-2 1.15783-.52923 2.394076-.86697 3.660156-1 .55734.005 1.110322-.0842 1.638672-.26171.37915-.22009.737632-.47426 1.070312-.75977.57748-.33579 1.206978-.57456 1.861328-.70898z"/><path d="m87.01627 52.684759c.14.08.29.13.42.22.53.35.59 1.15 1.12 1.48s1.5-.19 2.24 0a2.42 2.42 0 0 1 1.06.8 14.48 14.48 0 0 0 1.41 1.3 3.75 3.75 0 0 0 1.12.67 4.17 4.17 0 0 0 1.12.19 34.25 34.25 0 0 0 3.51 0 7 7 0 0 0 3.7-1 1.88 1.88 0 0 0 1-1.76c-.38-.23-.83.13-1.26.22a2 2 0 0 1 -1.16-.22 4.73 4.73 0 0 1 -1.49-1c-.75-.76-1.14-1.92-2.11-2.35a3.38 3.38 0 0 0 -1-.21 8.61 8.61 0 0 0 -1.83 0c-1.42.19-2.82.9-4.24.64l-.29-.36a1.43 1.43 0 0 0 -1-1.13 2.85 2.85 0 0 0 -1.74.21 2.22 2.22 0 0 0 -.57.24 1.16 1.16 0 0 0 -.49 1 1.15 1.15 0 0 0 .48 1.06z"/><path d="m88.25627 133.69476a.91.91 0 0 1 .06.77 3.19 3.19 0 0 0 -.25 1.36 13.39 13.39 0 0 0 .31 1.79 21.8 21.8 0 0 1 .13 3v.59a20.31 20.31 0 0 1 -.1 2.7c-.08.52-.24 1-.34 1.56-.06.35-.1.71-.13 1.07a2.26 2.26 0 0 0 0 .45 2.74 2.74 0 0 0 .25.73l.34.77a1.48 1.48 0 0 0 .17.33 1.07 1.07 0 0 0 .79.24.59.59 0 0 0 .32-.04.61.61 0 0 0 .18-.21 1.52 1.52 0 0 0 .16-.51 9.39 9.39 0 0 0 -.36-2.43c-.15-1.41.63-2.75.71-4.16a16.07 16.07 0 0 0 -.36-3c-.18-1.44 0-2.91-.31-4.33a1.12 1.12 0 0 0 -.23-.56 1.15 1.15 0 0 0 -.59-.27c-.27-.07-.64-.1-.77.15z"/><path d="m95.71627 129.60476c-.63.14-1 .84-1.12 1.47a12.76 12.76 0 0 0 0 5.15c.27 1.71.68 3.4.82 5.13s0 3.43.09 5.14a1.42 1.42 0 0 0 .35 1 1.16 1.16 0 0 0 .81.23.54.54 0 0 0 .28-.08.57.57 0 0 0 .2-.32 9 9 0 0 0 .35-2.64c.06-2 .13-4.08 0-6.11a4.23 4.23 0 0 1 .09-1.55c.07-.21.17-.4.25-.6a4.94 4.94 0 0 0 .19-1.67 1.83 1.83 0 0 0 -.08-.57 3.62 3.62 0 0 0 -.27-.41 3.23 3.23 0 0 1 -.43-2 5.22 5.22 0 0 0 0-1.25 1.32 1.32 0 0 0 -.72-1z"/><path d="m75.13627 131.80476a.5.5 0 0 0 -.47-.21 1.2 1.2 0 0 0 -.51.18 1.77 1.77 0 0 0 -.7.6 2 2 0 0 0 -.24.76 13.83 13.83 0 0 0 -.18 1.83 1.69 1.69 0 0 0 .18 1c.29.43.89.54 1.23.93s.36.87.74 1.12a1.13 1.13 0 0 0 .48.15.8.8 0 0 0 .57-.11.84.84 0 0 0 .27-.7 1.86 1.86 0 0 0 -.14-.7 5.43 5.43 0 0 0 -.63-.88 3.54 3.54 0 0 1 -.56-3.07 3 3 0 0 0 .11-.32.55.55 0 0 0 -.06-.28c-.03-.09-.05-.22-.09-.3z"/><path d="m62.99627 125.48476a1.22 1.22 0 0 0 -.67.33 2.45 2.45 0 0 0 -.51 2 2.05 2.05 0 0 0 .44 1.44 5.39 5.39 0 0 1 .63.51 1.53 1.53 0 0 1 .23.66 2.38 2.38 0 0 0 .3.82.93.93 0 0 0 .7.44.51.51 0 0 0 .38-.14.76.76 0 0 0 .13-.29 10.39 10.39 0 0 0 0-3.77 1 1 0 0 0 -.12-.42 1.81 1.81 0 0 0 -.18-.21c-.29-.4-.17-1.06-.59-1.32z"/><path d="m69.12627 126.77476c-.17-.06-.34.09-.47.22a4.4 4.4 0 0 0 -.88 1.26 1.51 1.51 0 0 0 .17 1.47c.17.2.4.33.58.52a1.83 1.83 0 0 1 .34.63 4 4 0 0 1 .22 1.54c0 .38-.1.76-.11 1.15a1.65 1.65 0 0 0 .33 1.08.58.58 0 0 0 .32.21.8.8 0 0 0 .51-.15 1.22 1.22 0 0 0 .46-.41 1.25 1.25 0 0 0 .09-.64l-.13-5a2.82 2.82 0 0 0 -.12-.87.9.9 0 0 0 -.6-.6z"/><path d="m83.59627 132.88476-.32-.11a1.28 1.28 0 0 0 -.39 0 1.44 1.44 0 0 0 -.72.3 1.93 1.93 0 0 0 -.65 1.34 3.65 3.65 0 0 0 .24 1.49 2.83 2.83 0 0 1 .22.9 4.15 4.15 0 0 1 -.25 1 12 12 0 0 0 -.13 2.47c-.07 1.28-.59 2.52-.48 3.79a4.06 4.06 0 0 0 .57 1.76 1 1 0 0 0 .33.36 1.13 1.13 0 0 0 .75.07 1.08 1.08 0 0 0 .55-.17 1.14 1.14 0 0 0 .33-1 65.23 65.23 0 0 1 .45-9.49c.08-.46.16-.91.21-1.37a5.46 5.46 0 0 0 0-.7 2.94 2.94 0 0 0 0-.51c0-.17-.13-.13-.29-.14h-.33z"/><path d="m99.31627 126.74476h-.29a.94.94 0 0 0 -.4.16 1.47 1.47 0 0 0 -.51.57 2.86 2.86 0 0 0 -.19 1.48 24.27 24.27 0 0 0 .61 2.91 16.05 16.05 0 0 1 .36 4.37 4.9 4.9 0 0 0 0 1.38 1.39 1.39 0 0 0 .83 1 8.67 8.67 0 0 0 .89.13 1.78 1.78 0 0 1 1.19 1.27 5.84 5.84 0 0 1 .12 1.82 43.55 43.55 0 0 0 .06 4.57 1.08 1.08 0 0 0 1.06 1.24 1.08 1.08 0 0 0 .59 0 1 1 0 0 0 .45-.54 10 10 0 0 0 .56-5.41c-.24-1.83-.71-3.61-.89-5.44a33.35 33.35 0 0 1 0-4.47 1.12 1.12 0 0 0 -.09-.6.74.74 0 0 0 -.86-.17 1.55 1.55 0 0 0 -.74.6.92.92 0 0 1 -.31.31.57.57 0 0 1 -.73-.4 2.23 2.23 0 0 1 0-.93 5.55 5.55 0 0 0 -.22-1.81 12.35 12.35 0 0 0 -.55-1.69 2.43 2.43 0 0 0 -.2-.35.4.4 0 0 0 -.22-.17c-.14 0-.24.1-.36.16a.23.23 0 0 1 -.16.01z"/><path d="m107.55627 126.18476a1.53 1.53 0 0 0 -1.62 0 .7.7 0 0 0 -.29.3 1 1 0 0 0 -.09.37 15.3 15.3 0 0 0 -.06 4.11c.06.36.13.7.19 1.05a15.13 15.13 0 0 1 .17 4 1.67 1.67 0 0 0 .18 1.23 1.43 1.43 0 0 0 .76.39.8.8 0 0 0 .53 0 .78.78 0 0 0 .33-.56 11.71 11.71 0 0 0 -.08-3.07 47.15 47.15 0 0 1 .34-5.44 5.19 5.19 0 0 0 -.18-2z"/><path d="m109.30627 139.77476a1 1 0 0 1 -.25-.21 2 2 0 0 0 -.28-.19 2.18 2.18 0 0 0 -.66-.24 2.22 2.22 0 0 0 -1.37.15.86.86 0 0 0 -.34.25.7.7 0 0 0 -.12.34c-.14.88.52 1.66 1 2.43a10.21 10.21 0 0 1 .93 4.59l.23 4.87a1.19 1.19 0 0 0 .26.85.86.86 0 0 0 1 .05 2.5 2.5 0 0 0 1.13-1.8c.58-2.62-.2-5.39.29-8a2.08 2.08 0 0 1 .86-1.52c.22-.11.47-.15.7-.25a2.33 2.33 0 0 0 1.26-1.52 7.28 7.28 0 0 0 .24-2 36.72 36.72 0 0 1 1-6.93 3.69 3.69 0 0 0 .17-1.35 1.17 1.17 0 0 0 -.8-1c-.58-.15-1.13.35-1.44.86a9.24 9.24 0 0 0 -.94 4.27c-.14 2.39-.34 4.78-.61 7.15a.7.7 0 0 1 -.09.3c-.21.29-.67.06-.87-.23a3.12 3.12 0 0 0 -.39-.56c-.35-.31-.64-.19-.91-.31z"/><path d="m117.51627 108.72476c.21.79-.28 1.57-.44 2.36a7.78 7.78 0 0 0 .22 2.83 25.64 25.64 0 0 1 .24 3.92c0 1.21 0 2.42-.06 3.63a25 25 0 0 0 -.26 3.86c0 .66.17 1.31.2 2a1 1 0 0 1 -.14.65.75.75 0 0 1 -.45.23 1.53 1.53 0 0 1 -1.48-.85 3.92 3.92 0 0 1 -.37-1.76 39.81 39.81 0 0 1 .08-4.23 5.37 5.37 0 0 0 -.08-1.65 20.69 20.69 0 0 0 -1.17-2.36 5.91 5.91 0 0 1 -.34-2.13 6.77 6.77 0 0 1 1.08-4.19 8 8 0 0 0 1.06-1.43 7.08 7.08 0 0 0 .31-1 2 2 0 0 1 .49-.9.87.87 0 0 1 1-.18.57.57 0 0 1 .18.87z"/><path d="m127.80627 105.59476a1 1 0 0 0 -1 .66 3 3 0 0 0 -.09 1.31 2.48 2.48 0 0 1 -.16 1.3 3.29 3.29 0 0 1 -.77.81 6.14 6.14 0 0 0 -1.61 6.63c.52 1.34 1.5 2.46 2.05 3.78 1 2.42.44 5.15.25 7.76a2.08 2.08 0 0 0 .07.86.73.73 0 0 0 .63.51.74.74 0 0 0 .52-.22 2.75 2.75 0 0 0 .76-1.87 19 19 0 0 0 .12-2.82 8.35 8.35 0 0 1 .3-3.7c.16-.37.39-.71.52-1.09a4.14 4.14 0 0 0 .17-1.17 6.73 6.73 0 0 0 -.25-2.9c-.24-.58-.63-1.09-.87-1.66a5.09 5.09 0 0 1 -.18-2.92 25.5 25.5 0 0 1 .84-2.83 3.15 3.15 0 0 0 .19-1.57 1.17 1.17 0 0 0 -1.07-1z"/><path d="m126.14627 94.174759a4.6 4.6 0 1 0 5 4.59 4.79 4.79 0 0 0 -5-4.59zm0 7.250001a2.66 2.66 0 1 1 2.88-2.660001 2.77 2.77 0 0 1 -2.88 2.660001z"/><path d="m122.49627 99.654759c-.6-2.4-3.33-3.79-6.1-3.11s-4.55 3.19-4 5.590001c.55 2.4 3.32 3.79 6.09 3.11s4.6-3.23 4.01-5.590001zm-4.69 4.430001a2.92 2.92 0 1 1 2.92-2.91 2.91 2.91 0 0 1 -2.92 2.91z"/><path d="m113.07627 102.68476c-.59-2.4-3.32-3.790001-6.1-3.100001-2.78.690001-4.54 3.180001-4 5.580001s3.33 3.79 6.1 3.11 4.59-3.19 4-5.59zm-4.38 3.72c-1.53.34-3-.33-3.22-1.49s.77-2.38 2.29-2.71 3 .33 3.22 1.49-.77 2.38-2.29 2.71z"/><path d="m103.80627 104.84476c-.64-2.61-3.7-4.1-6.83-3.32s-5.17 3.49-4.55 6.11 3.7 4.1 6.83 3.33 5.14-3.52 4.55-6.12zm-5.4 4.17a2.39 2.39 0 1 1 2.83-2.35 2.62 2.62 0 0 1 -2.83 2.35z"/><path d="m82.13627 109.73476a5.09 5.09 0 1 0 -3.77 5.94 5 5 0 0 0 3.77-5.94zm-4.93 3.62a2.41 2.41 0 1 1 2.62-2.4 2.52 2.52 0 0 1 -2.62 2.4z"/><path d="m72.36627 111.08476a5.09 5.09 0 1 0 -3.77 5.93 5 5 0 0 0 3.77-5.93zm-4.94 3.58a2.37 2.37 0 1 1 2.54-2.36 2.46 2.46 0 0 1 -2.54 2.36z"/><path d="m93.66627 107.62476c-.64-2.6-3.7-4.09-6.82-3.32s-5.15 3.51-4.5 6.12 3.7 4.09 6.82 3.32 5.15-3.51 4.5-6.12zm-5.46 4.39a2.54 2.54 0 1 1 2.72-2.54 2.63 2.63 0 0 1 -2.72 2.54z"/><path d="m112.40625 204.71484-2.06445.44556"/></svg>